<?xml version="1.0" encoding="utf-8" standalone="no"?>
<!DOCTYPE svg PUBLIC "-//W3C//DTD SVG 1.1//EN"
  "http://www.w3.org/Graphics/SVG/1.1/DTD/svg11.dtd">
<!-- Created with matplotlib (http://matplotlib.org/) -->
<svg height="432pt" version="1.1" viewBox="0 0 576 432" width="576pt" xmlns="http://www.w3.org/2000/svg" xmlns:xlink="http://www.w3.org/1999/xlink">
 <defs>
  <style type="text/css">
*{stroke-linecap:butt;stroke-linejoin:round;}
  </style>
 </defs>
 <g id="figure_1">
  <g id="patch_1">
   <path d="
M0 432
L576 432
L576 0
L0 0
z
" style="fill:#ffffff;"/>
  </g>
  <g id="axes_1">
   <g id="patch_2">
    <path d="
M72 378
L518.4 378
L518.4 43.2
L72 43.2
z
" style="fill:#ffffff;"/>
   </g>
   <g id="line2d_1">
    <path clip-path="url(#p332b41defa)" d="
M72 153.682
L72.8627 157.877
L73.7067 161.963
L74.5327 162.368
L75.3414 160.636
L76.1337 159.816
L76.91 148.548
L77.6712 135.557
L78.4176 132.603
L79.15 133.617
L79.8688 136.604
L81.2676 159.098
L81.9485 155.783
L82.6177 151.155
L83.2755 147.491
L83.9224 144.881
L84.5586 144.774
L85.1845 147.425
L85.8006 151.314
L86.4069 155.985
L87.592 168.112
L88.1712 170.12
L89.3043 162.409
L89.8586 160.713
L90.4052 158.082
L90.9441 154.936
L91.4757 153.046
L92 152.644
L92.5174 151.439
L93.028 149.654
L93.5319 149.005
L94.0294 149.301
L94.5205 148.785
L95.0055 147.361
L95.4846 148.984
L95.9577 151.743
L96.4252 152.838
L96.8871 155.643
L97.3436 157.667
L97.7947 157.155
L98.2407 151.993
L98.6816 148.564
L99.1175 150.391
L99.5486 153.07
L100.397 157.021
L100.814 156.49
L101.227 154.044
L102.039 150.734
L102.439 150.009
L102.835 152.759
L103.615 163.361
L103.999 165.99
L104.379 144.733
L104.756 95.4971
L105.129 67.6533
L105.498 59.2574
L105.864 59.1579
L106.227 60.2641
L106.586 71.0855
L107.295 139.689
L107.644 146.363
L107.991 145.309
L108.334 147.881
L108.674 153.424
L109.012 156.08
L109.346 156.301
L110.006 157.49
L110.655 152.598
L111.294 151.035
L111.609 150.919
L111.922 150.541
L112.233 152.023
L112.846 157.614
L113.149 158.038
L113.748 148.96
L114.044 147.526
L114.338 149.19
L114.919 155.163
L115.206 156.392
L115.492 155.963
L115.775 151.684
L116.056 144.193
L116.335 140.543
L116.612 141.021
L116.887 141.082
L117.16 144.163
L117.432 152.415
L117.701 153.884
L117.968 149.953
L118.234 148.713
L118.498 148.678
L118.76 147.084
L119.02 143.445
L119.279 141.793
L119.536 142.136
L119.791 141.818
L120.045 144.296
L120.296 149.564
L120.547 151.597
L120.795 145.081
L121.042 131.89
L121.288 125.889
L121.532 126.477
L121.774 125.45
L122.015 129.781
L122.493 152.759
L122.964 157.888
L123.198 158.526
L123.89 148.603
L124.119 147.678
L124.345 148.999
L124.571 151.207
L125.018 146.563
L125.24 151.597
L125.679 170.18
L125.897 168.54
L126.329 151.225
L126.543 150.52
L126.969 156.776
L127.179 156.743
L127.805 167.887
L128.011 167.57
L128.421 154.74
L129.227 146.336
L129.425 148.157
L129.623 152.375
L129.82 152.696
L130.016 153.863
L130.405 160.357
L130.598 160.202
L130.981 149.42
L131.171 149.484
L131.736 159.529
L131.922 157.686
L132.476 82.8302
L132.659 81.3909
L132.841 82.3092
L133.023 88.1223
L133.203 109.661
L133.383 145.99
L133.561 157.03
L133.916 161.467
L134.093 161.061
L134.617 152.338
L134.79 152.597
L135.134 149.189
L135.475 148.015
L135.981 157.917
L136.148 157.871
L136.314 155.997
L136.48 155.647
L136.645 157.248
L136.809 156.508
L137.298 149.661
L137.781 152.567
L138.1 159.97
L138.416 170.634
L138.729 165.958
L138.885 167.989
L139.04 167.035
L139.654 142.272
L139.806 142.156
L139.958 144.51
L140.409 153.863
L140.706 158.758
L140.855 152.986
L141.149 120.792
L141.295 116.727
L141.441 116.715
L141.586 119.088
L141.875 137.284
L142.162 139.319
L142.87 163.578
L143.288 158.196
L143.427 157.405
L143.839 146.754
L144.651 155.598
L144.785 155.558
L145.184 159.774
L145.315 160.3
L145.578 150.792
L145.839 143.586
L145.968 144.704
L146.226 152.064
L146.355 152.218
L146.61 149.963
L146.991 158.674
L147.492 139.971
L147.616 142.151
L147.864 152.996
L147.987 148.343
L148.232 95.1811
L148.475 88.7878
L148.596 90.2206
L148.717 103.692
L148.958 154.191
L149.197 162.443
L149.434 155.053
L149.788 147.797
L150.37 161.361
L150.715 152.787
L150.83 155.538
L150.944 154.774
L151.284 148.426
L151.397 151.057
L151.621 162.218
L151.733 160.532
L151.956 150.749
L152.066 152.737
L152.287 160.452
L152.507 154.217
L152.616 150.497
L152.725 150.612
L152.833 151.485
L153.05 145.229
L153.157 148.524
L153.372 162.393
L153.479 161.814
L153.692 155.011
L153.903 161.434
L154.009 164.379
L154.323 127.702
L154.427 128.119
L154.531 128.874
L154.841 147.493
L155.149 144.244
L155.251 144.661
L155.353 145.731
L155.455 144.889
L155.556 145.638
L155.858 151.242
L155.958 151.813
L156.257 161.418
L156.356 159.755
L156.652 145.482
L156.849 142.288
L156.946 143.964
L157.335 156.083
L157.527 151.23
L157.719 155.793
L157.814 155.427
L157.91 156.687
L158.005 154.993
L158.289 142.921
L158.383 144.902
L158.57 153.337
L158.664 151.816
L158.943 140.331
L159.035 141.502
L159.22 147.326
L159.586 96.7518
L159.677 96.5878
L159.768 103.776
L160.039 165.873
L160.487 150.513
L160.664 142.53
L160.753 145.083
L160.929 159.869
L161.017 159.169
L161.193 154.138
L161.28 149.374
L161.28 140.994
L162.143 147.382
L162.987 148.829
L163.813 148.987
L164.621 148.196
L165.414 147.78
L166.19 146.558
L166.951 140.872
L167.698 138.504
L168.43 139.331
L169.149 141.107
L170.548 149.039
L171.898 150.916
L172.556 150.602
L173.202 149.791
L173.839 146.503
L174.465 141.911
L175.081 140.82
L175.687 141.707
L176.284 144.392
L176.872 149.06
L177.451 150.932
L178.022 151.676
L178.584 152.663
L179.139 153.037
L179.685 152.508
L180.224 150.693
L180.756 149.605
L181.797 150.702
L182.812 153.7
L183.309 153.222
L184.286 153.042
L184.765 154.082
L185.238 155.759
L185.705 153.831
L186.167 151.165
L186.624 150.281
L187.075 150.552
L187.521 151.469
L187.962 151.702
L188.398 151.711
L188.829 151.838
L189.255 150.835
L189.677 150.264
L190.094 150.175
L190.507 149.55
L190.915 149.768
L191.719 152.003
L192.115 152.359
L192.507 151.963
L193.279 149.925
L193.659 149.235
L194.036 150.038
L194.409 151.804
L194.778 152.902
L195.144 152.867
L195.507 152.15
L195.866 152.244
L196.222 151.631
L196.575 149.87
L196.924 149.457
L197.271 149.82
L197.614 151.176
L197.954 153.282
L198.292 153.408
L198.626 151.558
L198.957 150.624
L199.286 151.793
L199.612 153.431
L199.935 152.879
L200.574 150.41
L200.889 149.779
L201.202 150.697
L201.513 152.566
L201.82 153.085
L202.126 152.782
L202.429 151.837
L202.73 150.284
L203.028 149.39
L203.324 149.339
L203.618 150.648
L203.91 152.655
L204.486 154.435
L204.772 154.024
L205.336 150.244
L205.615 149.979
L205.892 150.266
L206.167 149.918
L206.44 150.385
L206.712 151.414
L206.981 151.8
L207.248 151.74
L207.514 152.594
L207.778 154.577
L208.04 155.071
L208.3 153.251
L208.559 152.455
L208.816 152.773
L209.071 151.927
L209.325 150.581
L209.576 150.417
L209.827 151.117
L210.075 152.623
L210.568 157.331
L210.812 156.507
L211.295 153.094
L211.535 152.094
L211.773 151.827
L212.009 152.274
L212.478 155.326
L212.71 154.835
L212.941 152.766
L213.17 151.997
L213.399 152.147
L213.851 153.098
L214.075 153.049
L214.52 153.931
L214.74 153.908
L215.177 154.253
L215.609 152.761
L216.037 152.729
L216.459 154.126
L216.878 152.505
L217.496 154.657
L217.904 156.642
L218.106 155.694
L218.307 153.855
L218.507 153.538
L218.705 153.929
L219.1 153.243
L219.296 153.515
L219.491 154.008
L219.685 153.873
L220.07 152.427
L220.261 151.906
L220.64 149.872
L220.828 150.282
L221.388 152.583
L221.573 152.212
L221.756 152.423
L222.121 151.61
L222.303 151.519
L222.841 150.831
L223.373 152.92
L223.548 152.421
L224.07 153.366
L224.242 154.476
L224.414 154.842
L224.585 154.229
L224.755 154.724
L224.924 154.305
L225.261 151.246
L225.428 151.067
L226.089 155.47
L226.416 154.025
L226.578 154.228
L226.901 153.688
L227.061 153.842
L227.221 154.995
L227.538 158.98
L227.696 157.667
L228.165 149.763
L228.32 148.757
L228.474 149.076
L229.086 155.644
L229.238 156.586
L229.389 156.297
L229.539 155.596
L229.838 156.37
L229.986 155.853
L230.135 155.756
L230.282 155.112
L230.429 153.922
L230.575 154.899
L230.866 158.564
L231.011 158.122
L231.299 155.708
L231.584 154.827
L231.868 154.94
L232.15 155.788
L232.568 151.971
L232.982 153.072
L233.119 153.529
L233.527 155.958
L233.663 156.622
L233.797 156.133
L234.065 154.482
L234.464 153.839
L234.595 152.828
L234.858 153.123
L235.248 152.11
L235.506 151.415
L235.763 152.759
L236.018 156.211
L236.144 156.248
L236.522 153.19
L236.772 153.641
L237.02 155.98
L237.267 154.947
L237.389 155.091
L237.755 153.594
L237.997 155.193
L238.118 155.09
L238.357 153.176
L238.477 153.01
L238.596 152.256
L238.714 153.106
L238.95 155.632
L239.068 154.875
L239.302 152.17
L239.65 154.062
L239.766 153.793
L239.995 152.412
L240.11 152.081
L240.224 152.396
L240.451 156.134
L240.564 156.057
L240.677 155.658
L240.789 155.798
L240.901 155.607
L241.013 155.753
L241.236 156.736
L241.457 158.518
L242.005 153.489
L242.113 153.389
L242.33 154.062
L242.437 153.929
L242.652 152.625
L242.759 152.821
L242.972 153.503
L243.183 153.409
L243.289 152.818
L243.394 152.892
L243.603 155.09
L243.707 155.072
L243.915 155.722
L244.018 155.601
L244.224 157.453
L244.327 157.806
L244.429 158.778
L244.633 157.354
L244.735 157.752
L244.836 157.431
L244.937 157.569
L245.138 158.3
L245.238 157.679
L245.537 154.823
L245.636 154.33
L245.735 154.759
L245.932 156.099
L246.129 154.548
L246.226 154.758
L246.421 156.041
L246.711 152.879
L246.807 153.318
L246.999 155.021
L247.094 154.958
L247.19 154.778
L247.38 155.501
L247.474 155.353
L247.757 150.555
L247.85 150.57
L248.408 156.204
L248.592 157.545
L248.866 153.543
L249.138 159.201
L249.499 152.406
L249.767 155.014
L249.944 157.696
L250.209 156.247
L250.56 159.884
L251.423 162.533
L252.267 164.171
L253.093 162.761
L253.901 158.844
L254.694 155.959
L255.47 155.625
L256.231 156.482
L256.978 157.563
L257.71 157.973
L258.429 159.038
L259.135 160.448
L260.509 161.036
L261.178 161.707
L261.836 161.982
L262.482 162.521
L263.119 162.714
L263.745 162.356
L264.967 162.523
L265.564 162.121
L266.152 160.956
L266.731 159.352
L267.302 158.202
L267.864 158.837
L268.965 163.183
L269.504 164.74
L270.036 165.103
L270.56 163.56
L271.077 162.473
L271.588 163.044
L272.589 165.634
L273.081 167.024
L273.566 166.763
L274.045 165.484
L274.518 165.038
L274.985 164.794
L275.447 165.149
L276.355 167.138
L276.801 167.395
L277.678 167.721
L278.109 168.154
L278.535 168.377
L278.957 167.85
L279.374 167.095
L279.787 167.113
L280.195 167.803
L280.599 167.873
L280.999 167.504
L281.395 167.367
L281.787 166.865
L282.559 166.62
L282.939 167.277
L283.316 168.857
L283.689 169.297
L284.058 168.573
L284.787 166.814
L285.146 167.634
L285.855 170.126
L286.551 171.981
L286.894 172.708
L287.234 172.637
L287.906 171.278
L288.237 170.227
L288.566 170.127
L289.215 170.949
L289.854 174.318
L290.482 176.34
L290.793 176.146
L291.1 175.642
L291.406 176.049
L291.709 177.336
L292.604 181.985
L292.898 181.377
L293.766 178.509
L294.335 178.082
L294.616 178.595
L295.172 181.339
L295.447 181.714
L295.72 180.511
L296.261 175.851
L296.528 175.797
L297.058 180.225
L297.32 181.035
L298.096 182.058
L298.351 183.09
L298.605 182.712
L299.107 180.344
L299.355 180.962
L299.848 184.577
L300.092 185.098
L300.334 185.023
L300.815 182.828
L301.053 183.404
L301.524 185.382
L301.758 184.56
L301.99 183.205
L302.221 182.549
L302.45 182.348
L302.679 182.715
L302.905 183.475
L303.355 183.519
L303.8 181.243
L304.02 182.41
L304.457 187.284
L304.674 187.29
L305.103 187.115
L305.317 187.099
L305.739 186.663
L305.949 186.602
L306.158 186.818
L306.571 188.647
L306.776 188.448
L307.184 189.085
L307.386 188.015
L307.587 187.634
L307.985 188.938
L308.38 189.64
L308.576 189.132
L308.965 187.053
L309.158 187.093
L309.731 188.84
L309.92 189.291
L310.108 189.068
L310.296 189.965
L310.668 193.28
L311.036 194.99
L311.583 192.556
L311.763 192.831
L312.121 194.273
L312.299 194.179
L312.653 192.14
L312.828 192.339
L313.694 198.593
L313.865 198.197
L314.204 195.751
L314.541 192.866
L314.708 192.394
L314.874 193.158
L315.205 197.082
L315.533 200.838
L315.696 199.821
L316.02 196.615
L316.341 197.423
L316.501 197.271
L316.66 196.858
L316.818 197.216
L317.289 200.703
L317.6 204.558
L317.754 204.788
L318.062 203.297
L318.669 197.918
L318.819 198.018
L319.118 201.358
L319.266 201.224
L319.415 199.863
L319.562 199.987
L320.001 202.078
L320.291 202.875
L320.579 203.423
L320.722 203.037
L320.864 203.295
L321.007 204.074
L321.148 203.128
L321.43 199.384
L321.57 199.662
L321.987 204.711
L322.536 200.766
L322.672 200.991
L322.807 201.723
L323.211 204.786
L323.345 204.684
L323.875 207.169
L324.138 206.061
L324.399 207.056
L324.528 206.202
L324.658 206.114
L324.915 208.75
L325.298 205.574
L325.424 205.652
L325.677 207.339
L325.802 207.021
L326.176 204.566
L326.3 205.423
L326.547 207.689
L326.669 207.421
L326.914 208.877
L327.398 205.898
L327.757 208.581
L327.876 208.051
L328.23 204.123
L328.348 203.549
L328.465 204.482
L328.698 206.952
L328.815 207.596
L329.046 210.079
L329.161 209.928
L329.504 211.491
L329.731 210.729
L329.957 211.435
L330.069 211.23
L330.405 208.779
L330.516 208.721
L330.626 208.863
L330.847 210.479
L331.067 212.558
L331.176 212.585
L331.285 212.199
L331.502 213.807
L331.61 213.312
L331.825 211.835
L331.932 211.838
L332.039 211.986
L332.252 211.098
L332.463 211.891
L332.674 210.602
L332.883 211.023
L332.987 211.367
L333.709 216.958
L333.913 216.157
L334.015 216.425
L334.116 216.172
L334.518 211.938
L334.618 212.135
L334.817 214.945
L335.114 215.656
L335.212 215.545
L335.311 215.632
L335.604 218.144
L335.798 216.163
L335.895 216.473
L335.991 216.289
L336.279 215.353
L336.47 217.96
L336.565 217.699
L336.754 216.141
L336.849 216.411
L336.943 216.246
L337.037 215.664
L337.13 216.225
L337.317 219.507
L337.41 219.403
L337.503 218.649
L337.688 214.991
L337.78 215.021
L338.055 217.919
L338.146 217.732
L338.328 215.765
L338.689 221.663
L338.868 218.619
L339.136 209.475
L339.224 208.793
L339.489 214.429
L339.577 213.766
L339.665 214.441
L339.84 217.987
L339.84 221.736
L340.703 223.858
L341.547 225.589
L342.373 226.679
L343.181 227.088
L343.974 227.11
L344.75 227.464
L345.511 228.364
L346.258 230.487
L346.99 232.204
L347.709 232.707
L348.415 232.65
L349.108 232.085
L349.789 232.403
L351.116 236.017
L352.399 237.927
L354.247 242.006
L354.844 242.863
L356.011 245.506
L356.582 237.915
L357.144 211.471
L357.699 195.095
L358.245 192.081
L358.784 192.524
L359.316 196.278
L359.84 213.669
L360.357 242.329
L360.868 251.521
L361.372 252.617
L362.361 255.244
L362.846 255.698
L363.325 255.89
L364.727 257.03
L365.184 257.431
L365.635 258.314
L366.081 258.685
L366.522 258.433
L366.958 258.557
L367.815 260.108
L368.654 262.695
L369.067 263.162
L369.475 262.751
L369.879 262.752
L370.675 264.565
L371.067 264.743
L371.455 265.191
L371.839 266.033
L372.596 266.929
L372.969 267.536
L373.704 267.787
L374.067 267.764
L374.426 268.263
L375.484 270.354
L375.831 270.322
L376.174 269.813
L376.514 261.877
L376.852 250.006
L377.186 245.881
L377.517 245.786
L377.846 247.253
L378.172 255.828
L378.495 267.854
L378.816 273.085
L379.134 274.906
L379.449 275.308
L379.762 275.174
L380.073 275.39
L380.38 275.826
L380.686 276.893
L380.989 277.406
L381.588 274.414
L382.178 273.714
L382.47 273.919
L383.332 279.391
L383.615 280.093
L383.896 280.459
L384.175 281.09
L384.452 280.876
L385.272 275.647
L385.541 274.751
L385.808 275.204
L386.6 282.548
L386.86 283.426
L387.376 281.906
L387.631 281.732
L387.885 281.268
L388.136 281.23
L388.635 284.092
L388.882 284.218
L389.128 282.896
L389.372 282.248
L389.855 283.732
L390.333 283.913
L390.569 283.75
L390.804 283.287
L391.038 283.455
L391.73 286.355
L392.185 284.553
L392.635 284.731
L392.858 284.601
L393.08 284.907
L393.519 283.607
L393.954 284.001
L394.169 284.229
L394.597 286.247
L395.019 287.643
L395.229 287.519
L395.645 286.337
L396.056 284.671
L396.261 284.94
L396.867 289.975
L397.067 288.983
L397.463 285.393
L397.66 285.148
L398.438 288.426
L398.63 288.527
L399.011 287.433
L399.2 287.487
L399.388 287.739
L399.576 287.776
L399.762 287.647
L400.499 288.966
L400.681 288.475
L400.863 286.944
L401.043 268.517
L401.401 217.352
L401.579 213.196
L401.756 212.906
L401.933 216.524
L402.108 232.442
L402.457 284.217
L402.63 288.349
L402.974 287.392
L403.145 287.397
L403.315 287.101
L403.484 287.322
L403.821 288.25
L404.154 287.862
L404.32 287.838
L404.485 287.989
L404.649 288.579
L404.813 288.422
L404.976 288.085
L405.781 290.269
L405.94 290.501
L406.256 290.021
L406.725 292.578
L407.034 291.28
L407.342 290.194
L407.494 290.33
L407.646 291.369
L407.798 288.287
L408.099 250.508
L408.249 245.952
L408.398 246.106
L408.546 248.291
L409.135 288.986
L409.281 288.859
L409.426 289.62
L409.859 293.018
L410.428 294.953
L410.569 294.881
L410.71 294.156
L410.989 291.594
L411.405 293.849
L411.816 291.659
L411.952 291.695
L412.087 291.881
L412.357 292.721
L412.625 291.296
L412.758 291.595
L413.024 292.806
L413.287 292.802
L413.679 291.893
L413.938 291.494
L414.066 291.67
L414.323 290.536
L414.578 291.797
L414.957 294.873
L415.082 294.343
L415.332 292.934
L415.827 296.48
L416.072 295.538
L416.436 296.084
L416.798 293.556
L417.037 291.948
L417.156 292.064
L417.274 291.873
L417.393 291.951
L417.745 293.192
L417.862 293.636
L417.978 293.598
L418.095 293.231
L418.21 293.937
L418.441 296.795
L418.555 297.171
L418.898 294.757
L419.011 295.231
L419.237 295.738
L419.349 295.638
L419.461 295.299
L419.573 295.32
L419.796 296.305
L419.906 296.149
L420.127 294.153
L420.347 292.756
L420.565 294.212
L420.89 293.45
L420.997 293.852
L421.212 295.277
L421.425 295.437
L421.638 296.665
L421.954 294.476
L422.058 294.74
L422.163 295.318
L422.371 294.306
L422.578 295.788
L422.784 297.178
L423.091 294.483
L423.497 296.779
L423.598 296.709
L423.798 295.875
L423.898 296.013
L423.998 295.697
L424.295 294.192
L424.394 293.931
L424.591 293.325
L424.786 294.509
L424.884 294.462
L424.981 294.819
L425.271 296.47
L425.367 296.218
L425.559 295.289
L425.75 296.191
L426.129 294.329
L426.317 295.192
L426.41 295.208
L426.69 297.127
L427.243 292.373
L427.608 296.785
L427.789 295.611
L427.879 295.698
L428.148 294.795
L428.238 291.461
L428.504 273.571
L428.593 273.234
L428.681 276.935
L428.945 297.92
L429.033 298.55
L429.12 297.676
L429.12 293.42
L429.983 295.061
L430.827 297.149
L431.653 298.796
L432.461 299.641
L433.254 298.778
L434.03 297.1
L434.791 296.656
L435.538 297.174
L436.989 297.736
L437.695 297.732
L438.388 297.255
L439.069 296.349
L439.738 296.164
L441.042 298.228
L442.921 298.936
L443.527 298.577
L444.124 297.883
L444.712 298.216
L445.291 299.026
L445.862 299.297
L446.424 299.188
L447.525 296.797
L448.064 297.217
L449.12 299.504
L449.637 299.17
L450.148 298.438
L450.652 298.504
L451.641 299.156
L452.126 299.767
L453.078 301.901
L453.545 302.477
L454.007 302.413
L454.464 300.867
L454.915 300.157
L455.361 300.97
L456.238 301.733
L456.669 302.297
L457.517 301.684
L457.934 301.395
L458.347 300.368
L458.755 299.975
L459.159 300.292
L459.955 301.302
L460.347 301.397
L461.119 300.187
L461.499 300.27
L462.249 300.946
L462.984 303.48
L463.347 303.78
L463.706 303.634
L464.062 302.441
L464.415 300.828
L464.764 300.719
L465.111 301.59
L465.454 301.966
L465.794 301.685
L466.132 301.757
L466.797 303.463
L467.126 303.202
L467.452 302.395
L467.775 301.971
L468.096 302.353
L468.729 303.785
L469.353 303.712
L469.66 304.243
L470.269 303.695
L470.57 303.665
L471.164 302.948
L471.75 300.199
L472.039 300.242
L472.612 302.024
L472.895 303.215
L473.455 304.639
L474.007 307.186
L474.28 307.553
L474.552 307.387
L475.088 304.724
L475.354 304.381
L475.88 305.413
L476.14 305.188
L476.399 305.274
L476.911 306.602
L477.165 306.7
L478.408 308.878
L478.652 308.791
L479.135 306.73
L479.849 308.254
L480.318 308.627
L480.55 308.792
L481.01 309.818
L481.465 311.112
L481.691 311.146
L482.58 305.739
L482.799 306.434
L483.449 309.69
L483.663 309.867
L484.299 308.843
L484.718 308.867
L485.131 309.438
L485.541 309.312
L485.744 309.62
L485.946 309.552
L486.347 308.725
L486.545 308.767
L487.136 312.37
L488.101 309.177
L488.291 309.124
L488.48 309.303
L488.856 310.647
L489.228 312.676
L489.413 312.933
L489.779 312.745
L489.961 312.61
L490.143 312.283
L490.323 312.217
L490.859 313.682
L491.036 313.703
L491.213 313.441
L491.388 313.946
L491.737 315.882
L492.254 312.11
L492.425 312.419
L492.764 314.141
L492.933 314.182
L493.101 314.108
L493.268 314.189
L493.434 314.549
L493.765 316.869
L493.929 316.935
L494.093 316.657
L494.418 314.927
L494.58 314.758
L494.741 314.186
L495.061 311.974
L495.22 312.885
L495.536 316.827
L495.693 317.443
L496.005 316.324
L496.774 319.058
L497.078 317.783
L497.229 318.385
L497.529 320.568
L497.678 321.109
L497.826 320.868
L498.122 319.164
L498.415 318.434
L498.561 318.267
L498.851 319.507
L499.282 321.718
L499.567 320.435
L499.849 320.3
L500.269 322.837
L500.408 322.393
L500.822 319.86
L501.503 324.009
L501.771 324.466
L501.905 324.234
L502.171 322.472
L502.435 323.102
L502.698 322.164
L502.829 322.995
L503.218 326.879
L503.475 324.673
L503.603 324.661
L503.73 325.546
L503.858 325.595
L504.111 324.516
L504.237 324.204
L504.487 324.884
L504.736 324.35
L504.86 324.62
L505.229 326.676
L505.474 326.25
L505.595 326.812
L505.958 330.749
L506.078 330.752
L506.197 330.937
L506.317 330.63
L506.554 328.707
L506.673 328.713
L506.79 328.489
L507.025 327.313
L507.142 327.492
L507.606 329.567
L507.835 330.457
L508.064 330.125
L508.517 333.958
L508.741 333.017
L508.853 333.227
L509.186 335.345
L509.407 334.17
L509.627 333.481
L509.953 334.039
L510.17 332.532
L510.385 330.907
L510.918 333.856
L511.129 333.741
L511.234 334.324
L511.651 340.623
L511.755 339.973
L512.167 335.348
L512.269 335.46
L512.676 339.171
L512.777 338.788
L512.878 338.893
L512.978 339.246
L513.078 338.717
L513.377 335.49
L513.476 335.442
L513.969 339.452
L514.066 339.27
L514.164 339.344
L514.261 339.176
L514.358 339.324
L514.455 339.719
L514.743 339.42
L514.839 338.887
L514.934 339.032
L515.314 342.017
L515.503 341.616
L515.597 341.817
L515.877 338.955
L516.248 342.186
L516.34 342.098
L516.432 342.333
L516.797 344.654
L517.069 342.876
L517.339 344.902
L517.518 344.298
L517.607 344.744
L517.873 347.282
L518.049 347.272
L518.225 345.599
L518.313 344.446
L518.4 344.46" style="fill:none;stroke:#0000ff;stroke-linecap:square;"/>
   </g>
   <g id="line2d_2">
    <defs>
     <path d="
M0 3
C0.795609 3 1.55874 2.6839 2.12132 2.12132
C2.6839 1.55874 3 0.795609 3 0
C3 -0.795609 2.6839 -1.55874 2.12132 -2.12132
C1.55874 -2.6839 0.795609 -3 0 -3
C-0.795609 -3 -1.55874 -2.6839 -2.12132 -2.12132
C-2.6839 -1.55874 -3 -0.795609 -3 0
C-3 0.795609 -2.6839 1.55874 -2.12132 2.12132
C-1.55874 2.6839 -0.795609 3 0 3
z
" id="md175be6dbf" style="stroke:#000000;stroke-width:0.5;"/>
    </defs>
    <g clip-path="url(#p332b41defa)">
     <use style="fill:#ff0000;stroke:#000000;stroke-width:0.5;" x="358.245159637" xlink:href="#md175be6dbf" y="192.081123696"/>
    </g>
   </g>
   <g id="line2d_3">
    <g clip-path="url(#p332b41defa)">
     <use style="fill:#ff0000;stroke:#000000;stroke-width:0.5;" x="377.517498841" xlink:href="#md175be6dbf" y="245.78615001"/>
    </g>
   </g>
   <g id="line2d_4">
    <g clip-path="url(#p332b41defa)">
     <use style="fill:#ff0000;stroke:#000000;stroke-width:0.5;" x="401.756314659" xlink:href="#md175be6dbf" y="212.906065175"/>
    </g>
   </g>
   <g id="line2d_5">
    <g clip-path="url(#p332b41defa)">
     <use style="fill:#ff0000;stroke:#000000;stroke-width:0.5;" x="408.248737058" xlink:href="#md175be6dbf" y="245.952163058"/>
    </g>
   </g>
   <g id="line2d_6">
    <g clip-path="url(#p332b41defa)">
     <use style="fill:#ff0000;stroke:#000000;stroke-width:0.5;" x="414.322885363" xlink:href="#md175be6dbf" y="290.535891565"/>
    </g>
   </g>
   <g id="line2d_7">
    <g clip-path="url(#p332b41defa)">
     <use style="fill:#ff0000;stroke:#000000;stroke-width:0.5;" x="428.592988158" xlink:href="#md175be6dbf" y="273.234159319"/>
    </g>
   </g>
   <g id="matplotlib.axis_1">
    <g id="xtick_1">
     <g id="line2d_8">
      <path clip-path="url(#p332b41defa)" d="
M72 378
L72 43.2" style="fill:none;stroke:#000000;stroke-dasharray:1.000000,3.000000;stroke-dashoffset:0.0;stroke-width:0.5;"/>
     </g>
     <g id="line2d_9">
      <defs>
       <path d="
M0 0
L0 -4" id="m93b0483c22" style="stroke:#000000;stroke-width:0.5;"/>
      </defs>
      <g>
       <use style="stroke:#000000;stroke-width:0.5;" x="72.0" xlink:href="#m93b0483c22" y="378.0"/>
      </g>
     </g>
     <g id="line2d_10">
      <defs>
       <path d="
M0 0
L0 4" id="m741efc42ff" style="stroke:#000000;stroke-width:0.5;"/>
      </defs>
      <g>
       <use style="stroke:#000000;stroke-width:0.5;" x="72.0" xlink:href="#m741efc42ff" y="43.2"/>
      </g>
     </g>
     <g id="text_1">
      <!-- $\mathdefault{10^{2}}$ -->
      <defs>
       <path d="
M12.7969 55.5156
L7.32812 55.5156
L7.32812 68.5
Q12.5469 71.2969 17.8438 72.75
Q23.1406 74.2188 28.2188 74.2188
Q39.5938 74.2188 46.1875 68.7031
Q52.7812 63.1875 52.7812 53.7188
Q52.7812 43.0156 37.8438 28.125
Q36.6719 27 36.0781 26.4219
L17.6719 8.01562
L48.0938 8.01562
L48.0938 17
L53.8125 17
L53.8125 0
L6.78125 0
L6.78125 5.32812
L28.9062 27.3906
Q36.2344 34.7188 39.3594 40.8438
Q42.4844 46.9688 42.4844 53.7188
Q42.4844 61.0781 38.6406 65.2344
Q34.8125 69.3906 28.0781 69.3906
Q21.0938 69.3906 17.2812 65.9219
Q13.4844 62.4531 12.7969 55.5156" id="DejaVuSerif-32"/>
       <path d="
M31.7812 3.42188
Q39.2656 3.42188 42.9688 11.625
Q46.6875 19.8281 46.6875 36.375
Q46.6875 52.9844 42.9688 61.1875
Q39.2656 69.3906 31.7812 69.3906
Q24.3125 69.3906 20.5938 61.1875
Q16.8906 52.9844 16.8906 36.375
Q16.8906 19.8281 20.5938 11.625
Q24.3125 3.42188 31.7812 3.42188
M31.7812 -1.42188
Q19.9219 -1.42188 13.25 8.53125
Q6.59375 18.5 6.59375 36.375
Q6.59375 54.2969 13.25 64.25
Q19.9219 74.2188 31.7812 74.2188
Q43.7031 74.2188 50.3438 64.25
Q56.9844 54.2969 56.9844 36.375
Q56.9844 18.5 50.3438 8.53125
Q43.7031 -1.42188 31.7812 -1.42188" id="DejaVuSerif-30"/>
       <path d="
M14.2031 0
L14.2031 5.17188
L26.9062 5.17188
L26.9062 65.8281
L12.2031 56.2969
L12.2031 62.7031
L29.9844 74.2188
L36.7188 74.2188
L36.7188 5.17188
L49.4219 5.17188
L49.4219 0
z
" id="DejaVuSerif-31"/>
      </defs>
      <g transform="translate(61.02 393.064375)scale(0.12 -0.12)">
       <use transform="translate(0.0 0.4)" xlink:href="#DejaVuSerif-31"/>
       <use transform="translate(63.623046875 0.4)" xlink:href="#DejaVuSerif-30"/>
       <use transform="translate(127.24609375 59.046875)scale(0.7)" xlink:href="#DejaVuSerif-32"/>
      </g>
     </g>
    </g>
    <g id="xtick_2">
     <g id="line2d_11">
      <path clip-path="url(#p332b41defa)" d="
M161.28 378
L161.28 43.2" style="fill:none;stroke:#000000;stroke-dasharray:1.000000,3.000000;stroke-dashoffset:0.0;stroke-width:0.5;"/>
     </g>
     <g id="line2d_12">
      <g>
       <use style="stroke:#000000;stroke-width:0.5;" x="161.28" xlink:href="#m93b0483c22" y="378.0"/>
      </g>
     </g>
     <g id="line2d_13">
      <g>
       <use style="stroke:#000000;stroke-width:0.5;" x="161.28" xlink:href="#m741efc42ff" y="43.2"/>
      </g>
     </g>
     <g id="text_2">
      <!-- $\mathdefault{10^{3}}$ -->
      <defs>
       <path d="
M9.71875 69.8281
Q15.4375 71.9688 20.6719 73.0938
Q25.9219 74.2188 30.5156 74.2188
Q41.2188 74.2188 47.2188 69.5938
Q53.2188 64.9844 53.2188 56.7812
Q53.2188 50.2031 49.0625 45.7812
Q44.9219 41.3594 37.3125 39.7969
Q46.2969 38.5312 51.25 33.2812
Q56.2031 28.0312 56.2031 19.6719
Q56.2031 9.46875 49.3438 4.01562
Q42.4844 -1.42188 29.5938 -1.42188
Q23.875 -1.42188 18.4219 -0.1875
Q12.9844 1.03125 7.625 3.51562
L7.625 17.6719
L13.0938 17.6719
Q13.5781 10.6406 17.8281 7.03125
Q22.0781 3.42188 29.7812 3.42188
Q37.25 3.42188 41.5781 7.73438
Q45.9062 12.0625 45.9062 19.5781
Q45.9062 28.1719 41.4531 32.5938
Q37.0156 37.0156 28.4219 37.0156
L23.7812 37.0156
L23.7812 42
L26.2188 42
Q34.7656 42 39.0312 45.5312
Q43.3125 49.0781 43.3125 56.2031
Q43.3125 62.5938 39.7969 65.9844
Q36.2812 69.3906 29.6875 69.3906
Q23.0938 69.3906 19.4531 66.2656
Q15.8281 63.1406 15.1875 56.9844
L9.71875 56.9844
z
" id="DejaVuSerif-33"/>
      </defs>
      <g transform="translate(150.3 393.064375)scale(0.12 -0.12)">
       <use transform="translate(0.0 0.4)" xlink:href="#DejaVuSerif-31"/>
       <use transform="translate(63.623046875 0.4)" xlink:href="#DejaVuSerif-30"/>
       <use transform="translate(127.24609375 59.046875)scale(0.7)" xlink:href="#DejaVuSerif-33"/>
      </g>
     </g>
    </g>
    <g id="xtick_3">
     <g id="line2d_14">
      <path clip-path="url(#p332b41defa)" d="
M250.56 378
L250.56 43.2" style="fill:none;stroke:#000000;stroke-dasharray:1.000000,3.000000;stroke-dashoffset:0.0;stroke-width:0.5;"/>
     </g>
     <g id="line2d_15">
      <g>
       <use style="stroke:#000000;stroke-width:0.5;" x="250.56" xlink:href="#m93b0483c22" y="378.0"/>
      </g>
     </g>
     <g id="line2d_16">
      <g>
       <use style="stroke:#000000;stroke-width:0.5;" x="250.56" xlink:href="#m741efc42ff" y="43.2"/>
      </g>
     </g>
     <g id="text_3">
      <!-- $\mathdefault{10^{4}}$ -->
      <defs>
       <path d="
M34.9062 24.7031
L34.9062 63.4844
L10.0156 24.7031
z

M56.3906 0
L23.1875 0
L23.1875 5.17188
L34.9062 5.17188
L34.9062 19.4844
L3.07812 19.4844
L3.07812 24.8125
L35.0156 74.2188
L44.6719 74.2188
L44.6719 24.7031
L58.5938 24.7031
L58.5938 19.4844
L44.6719 19.4844
L44.6719 5.17188
L56.3906 5.17188
z
" id="DejaVuSerif-34"/>
      </defs>
      <g transform="translate(239.58 393.064375)scale(0.12 -0.12)">
       <use transform="translate(0.0 0.4)" xlink:href="#DejaVuSerif-31"/>
       <use transform="translate(63.623046875 0.4)" xlink:href="#DejaVuSerif-30"/>
       <use transform="translate(127.24609375 59.046875)scale(0.7)" xlink:href="#DejaVuSerif-34"/>
      </g>
     </g>
    </g>
    <g id="xtick_4">
     <g id="line2d_17">
      <path clip-path="url(#p332b41defa)" d="
M339.84 378
L339.84 43.2" style="fill:none;stroke:#000000;stroke-dasharray:1.000000,3.000000;stroke-dashoffset:0.0;stroke-width:0.5;"/>
     </g>
     <g id="line2d_18">
      <g>
       <use style="stroke:#000000;stroke-width:0.5;" x="339.84" xlink:href="#m93b0483c22" y="378.0"/>
      </g>
     </g>
     <g id="line2d_19">
      <g>
       <use style="stroke:#000000;stroke-width:0.5;" x="339.84" xlink:href="#m741efc42ff" y="43.2"/>
      </g>
     </g>
     <g id="text_4">
      <!-- $\mathdefault{10^{5}}$ -->
      <defs>
       <path d="
M50.2969 72.9062
L50.2969 64.8906
L16.8906 64.8906
L16.8906 44
Q19.4375 45.75 22.8281 46.625
Q26.2188 47.5156 30.4219 47.5156
Q42.2344 47.5156 49.0625 40.9688
Q55.9062 34.4219 55.9062 23.0938
Q55.9062 11.5312 49 5.04688
Q42.0938 -1.42188 29.5938 -1.42188
Q24.5625 -1.42188 19.2812 -0.1875
Q14.0156 1.03125 8.5 3.51562
L8.5 17.6719
L14.0156 17.6719
Q14.4531 10.75 18.4219 7.07812
Q22.4062 3.42188 29.5938 3.42188
Q37.3125 3.42188 41.4531 8.5
Q45.6094 13.5781 45.6094 23.0938
Q45.6094 32.5625 41.4844 37.6094
Q37.3594 42.6719 29.5938 42.6719
Q25.2031 42.6719 21.8438 41.1094
Q18.5 39.5469 15.9219 36.2812
L11.7188 36.2812
L11.7188 72.9062
z
" id="DejaVuSerif-35"/>
      </defs>
      <g transform="translate(328.86 392.944375)scale(0.12 -0.12)">
       <use transform="translate(0.0 0.31875)" xlink:href="#DejaVuSerif-31"/>
       <use transform="translate(63.623046875 0.31875)" xlink:href="#DejaVuSerif-30"/>
       <use transform="translate(127.24609375 58.965625)scale(0.7)" xlink:href="#DejaVuSerif-35"/>
      </g>
     </g>
    </g>
    <g id="xtick_5">
     <g id="line2d_20">
      <path clip-path="url(#p332b41defa)" d="
M429.12 378
L429.12 43.2" style="fill:none;stroke:#000000;stroke-dasharray:1.000000,3.000000;stroke-dashoffset:0.0;stroke-width:0.5;"/>
     </g>
     <g id="line2d_21">
      <g>
       <use style="stroke:#000000;stroke-width:0.5;" x="429.12" xlink:href="#m93b0483c22" y="378.0"/>
      </g>
     </g>
     <g id="line2d_22">
      <g>
       <use style="stroke:#000000;stroke-width:0.5;" x="429.12" xlink:href="#m741efc42ff" y="43.2"/>
      </g>
     </g>
     <g id="text_5">
      <!-- $\mathdefault{10^{6}}$ -->
      <defs>
       <path d="
M32.7188 3.42188
Q39.5938 3.42188 43.2969 8.46875
Q47.0156 13.5312 47.0156 23
Q47.0156 32.4688 43.2969 37.5156
Q39.5938 42.5781 32.7188 42.5781
Q25.7344 42.5781 22.0625 37.6875
Q18.4062 32.8125 18.4062 23.5781
Q18.4062 13.875 22.1094 8.64062
Q25.8281 3.42188 32.7188 3.42188
M16.7969 40.1406
Q20.125 43.7969 24.3125 45.5938
Q28.5156 47.4062 33.7969 47.4062
Q44.6719 47.4062 51 40.8594
Q57.3281 34.3281 57.3281 23
Q57.3281 11.9219 50.5156 5.25
Q43.7031 -1.42188 32.3281 -1.42188
Q19.9688 -1.42188 13.3281 7.78125
Q6.6875 17 6.6875 34.0781
Q6.6875 53.2188 14.5469 63.7188
Q22.4062 74.2188 36.7188 74.2188
Q40.5781 74.2188 44.8281 73.4844
Q49.0781 72.75 53.5156 71.2969
L53.5156 59.2812
L48 59.2812
Q47.4062 64.2031 44.2344 66.7969
Q41.0625 69.3906 35.6875 69.3906
Q26.2188 69.3906 21.5781 62.2031
Q16.9375 55.0312 16.7969 40.1406" id="DejaVuSerif-36"/>
      </defs>
      <g transform="translate(418.14 393.064375)scale(0.12 -0.12)">
       <use transform="translate(0.0 0.4)" xlink:href="#DejaVuSerif-31"/>
       <use transform="translate(63.623046875 0.4)" xlink:href="#DejaVuSerif-30"/>
       <use transform="translate(127.24609375 59.046875)scale(0.7)" xlink:href="#DejaVuSerif-36"/>
      </g>
     </g>
    </g>
    <g id="xtick_6">
     <g id="line2d_23">
      <path clip-path="url(#p332b41defa)" d="
M518.4 378
L518.4 43.2" style="fill:none;stroke:#000000;stroke-dasharray:1.000000,3.000000;stroke-dashoffset:0.0;stroke-width:0.5;"/>
     </g>
     <g id="line2d_24">
      <g>
       <use style="stroke:#000000;stroke-width:0.5;" x="518.4" xlink:href="#m93b0483c22" y="378.0"/>
      </g>
     </g>
     <g id="line2d_25">
      <g>
       <use style="stroke:#000000;stroke-width:0.5;" x="518.4" xlink:href="#m741efc42ff" y="43.2"/>
      </g>
     </g>
     <g id="text_6">
      <!-- $\mathdefault{10^{7}}$ -->
      <defs>
       <path d="
M56.3906 67.9219
L27.875 0
L20.6094 0
L47.7969 64.8906
L14.1094 64.8906
L14.1094 55.9062
L8.40625 55.9062
L8.40625 72.9062
L56.3906 72.9062
z
" id="DejaVuSerif-37"/>
      </defs>
      <g transform="translate(507.42 392.944375)scale(0.12 -0.12)">
       <use transform="translate(0.0 0.31875)" xlink:href="#DejaVuSerif-31"/>
       <use transform="translate(63.623046875 0.31875)" xlink:href="#DejaVuSerif-30"/>
       <use transform="translate(127.24609375 58.965625)scale(0.7)" xlink:href="#DejaVuSerif-37"/>
      </g>
     </g>
    </g>
    <g id="xtick_7">
     <g id="line2d_26">
      <defs>
       <path d="
M0 0
L0 -2" id="m177f7580d0" style="stroke:#000000;stroke-width:0.5;"/>
      </defs>
      <g>
       <use style="stroke:#000000;stroke-width:0.5;" x="98.8759580129" xlink:href="#m177f7580d0" y="378.0"/>
      </g>
     </g>
     <g id="line2d_27">
      <defs>
       <path d="
M0 0
L0 2" id="m5284c7e2a0" style="stroke:#000000;stroke-width:0.5;"/>
      </defs>
      <g>
       <use style="stroke:#000000;stroke-width:0.5;" x="98.8759580129" xlink:href="#m5284c7e2a0" y="43.2"/>
      </g>
     </g>
    </g>
    <g id="xtick_8">
     <g id="line2d_28">
      <g>
       <use style="stroke:#000000;stroke-width:0.5;" x="114.597385621" xlink:href="#m177f7580d0" y="378.0"/>
      </g>
     </g>
     <g id="line2d_29">
      <g>
       <use style="stroke:#000000;stroke-width:0.5;" x="114.597385621" xlink:href="#m5284c7e2a0" y="43.2"/>
      </g>
     </g>
    </g>
    <g id="xtick_9">
     <g id="line2d_30">
      <g>
       <use style="stroke:#000000;stroke-width:0.5;" x="125.751916026" xlink:href="#m177f7580d0" y="378.0"/>
      </g>
     </g>
     <g id="line2d_31">
      <g>
       <use style="stroke:#000000;stroke-width:0.5;" x="125.751916026" xlink:href="#m5284c7e2a0" y="43.2"/>
      </g>
     </g>
    </g>
    <g id="xtick_10">
     <g id="line2d_32">
      <g>
       <use style="stroke:#000000;stroke-width:0.5;" x="134.404041987" xlink:href="#m177f7580d0" y="378.0"/>
      </g>
     </g>
     <g id="line2d_33">
      <g>
       <use style="stroke:#000000;stroke-width:0.5;" x="134.404041987" xlink:href="#m5284c7e2a0" y="43.2"/>
      </g>
     </g>
    </g>
    <g id="xtick_11">
     <g id="line2d_34">
      <g>
       <use style="stroke:#000000;stroke-width:0.5;" x="141.473343634" xlink:href="#m177f7580d0" y="378.0"/>
      </g>
     </g>
     <g id="line2d_35">
      <g>
       <use style="stroke:#000000;stroke-width:0.5;" x="141.473343634" xlink:href="#m5284c7e2a0" y="43.2"/>
      </g>
     </g>
    </g>
    <g id="xtick_12">
     <g id="line2d_36">
      <g>
       <use style="stroke:#000000;stroke-width:0.5;" x="147.450353012" xlink:href="#m177f7580d0" y="378.0"/>
      </g>
     </g>
     <g id="line2d_37">
      <g>
       <use style="stroke:#000000;stroke-width:0.5;" x="147.450353012" xlink:href="#m5284c7e2a0" y="43.2"/>
      </g>
     </g>
    </g>
    <g id="xtick_13">
     <g id="line2d_38">
      <g>
       <use style="stroke:#000000;stroke-width:0.5;" x="152.627874039" xlink:href="#m177f7580d0" y="378.0"/>
      </g>
     </g>
     <g id="line2d_39">
      <g>
       <use style="stroke:#000000;stroke-width:0.5;" x="152.627874039" xlink:href="#m5284c7e2a0" y="43.2"/>
      </g>
     </g>
    </g>
    <g id="xtick_14">
     <g id="line2d_40">
      <g>
       <use style="stroke:#000000;stroke-width:0.5;" x="157.194771243" xlink:href="#m177f7580d0" y="378.0"/>
      </g>
     </g>
     <g id="line2d_41">
      <g>
       <use style="stroke:#000000;stroke-width:0.5;" x="157.194771243" xlink:href="#m5284c7e2a0" y="43.2"/>
      </g>
     </g>
    </g>
    <g id="xtick_15">
     <g id="line2d_42">
      <g>
       <use style="stroke:#000000;stroke-width:0.5;" x="188.155958013" xlink:href="#m177f7580d0" y="378.0"/>
      </g>
     </g>
     <g id="line2d_43">
      <g>
       <use style="stroke:#000000;stroke-width:0.5;" x="188.155958013" xlink:href="#m5284c7e2a0" y="43.2"/>
      </g>
     </g>
    </g>
    <g id="xtick_16">
     <g id="line2d_44">
      <g>
       <use style="stroke:#000000;stroke-width:0.5;" x="203.877385621" xlink:href="#m177f7580d0" y="378.0"/>
      </g>
     </g>
     <g id="line2d_45">
      <g>
       <use style="stroke:#000000;stroke-width:0.5;" x="203.877385621" xlink:href="#m5284c7e2a0" y="43.2"/>
      </g>
     </g>
    </g>
    <g id="xtick_17">
     <g id="line2d_46">
      <g>
       <use style="stroke:#000000;stroke-width:0.5;" x="215.031916026" xlink:href="#m177f7580d0" y="378.0"/>
      </g>
     </g>
     <g id="line2d_47">
      <g>
       <use style="stroke:#000000;stroke-width:0.5;" x="215.031916026" xlink:href="#m5284c7e2a0" y="43.2"/>
      </g>
     </g>
    </g>
    <g id="xtick_18">
     <g id="line2d_48">
      <g>
       <use style="stroke:#000000;stroke-width:0.5;" x="223.684041987" xlink:href="#m177f7580d0" y="378.0"/>
      </g>
     </g>
     <g id="line2d_49">
      <g>
       <use style="stroke:#000000;stroke-width:0.5;" x="223.684041987" xlink:href="#m5284c7e2a0" y="43.2"/>
      </g>
     </g>
    </g>
    <g id="xtick_19">
     <g id="line2d_50">
      <g>
       <use style="stroke:#000000;stroke-width:0.5;" x="230.753343634" xlink:href="#m177f7580d0" y="378.0"/>
      </g>
     </g>
     <g id="line2d_51">
      <g>
       <use style="stroke:#000000;stroke-width:0.5;" x="230.753343634" xlink:href="#m5284c7e2a0" y="43.2"/>
      </g>
     </g>
    </g>
    <g id="xtick_20">
     <g id="line2d_52">
      <g>
       <use style="stroke:#000000;stroke-width:0.5;" x="236.730353012" xlink:href="#m177f7580d0" y="378.0"/>
      </g>
     </g>
     <g id="line2d_53">
      <g>
       <use style="stroke:#000000;stroke-width:0.5;" x="236.730353012" xlink:href="#m5284c7e2a0" y="43.2"/>
      </g>
     </g>
    </g>
    <g id="xtick_21">
     <g id="line2d_54">
      <g>
       <use style="stroke:#000000;stroke-width:0.5;" x="241.907874039" xlink:href="#m177f7580d0" y="378.0"/>
      </g>
     </g>
     <g id="line2d_55">
      <g>
       <use style="stroke:#000000;stroke-width:0.5;" x="241.907874039" xlink:href="#m5284c7e2a0" y="43.2"/>
      </g>
     </g>
    </g>
    <g id="xtick_22">
     <g id="line2d_56">
      <g>
       <use style="stroke:#000000;stroke-width:0.5;" x="246.474771243" xlink:href="#m177f7580d0" y="378.0"/>
      </g>
     </g>
     <g id="line2d_57">
      <g>
       <use style="stroke:#000000;stroke-width:0.5;" x="246.474771243" xlink:href="#m5284c7e2a0" y="43.2"/>
      </g>
     </g>
    </g>
    <g id="xtick_23">
     <g id="line2d_58">
      <g>
       <use style="stroke:#000000;stroke-width:0.5;" x="277.435958013" xlink:href="#m177f7580d0" y="378.0"/>
      </g>
     </g>
     <g id="line2d_59">
      <g>
       <use style="stroke:#000000;stroke-width:0.5;" x="277.435958013" xlink:href="#m5284c7e2a0" y="43.2"/>
      </g>
     </g>
    </g>
    <g id="xtick_24">
     <g id="line2d_60">
      <g>
       <use style="stroke:#000000;stroke-width:0.5;" x="293.157385621" xlink:href="#m177f7580d0" y="378.0"/>
      </g>
     </g>
     <g id="line2d_61">
      <g>
       <use style="stroke:#000000;stroke-width:0.5;" x="293.157385621" xlink:href="#m5284c7e2a0" y="43.2"/>
      </g>
     </g>
    </g>
    <g id="xtick_25">
     <g id="line2d_62">
      <g>
       <use style="stroke:#000000;stroke-width:0.5;" x="304.311916026" xlink:href="#m177f7580d0" y="378.0"/>
      </g>
     </g>
     <g id="line2d_63">
      <g>
       <use style="stroke:#000000;stroke-width:0.5;" x="304.311916026" xlink:href="#m5284c7e2a0" y="43.2"/>
      </g>
     </g>
    </g>
    <g id="xtick_26">
     <g id="line2d_64">
      <g>
       <use style="stroke:#000000;stroke-width:0.5;" x="312.964041987" xlink:href="#m177f7580d0" y="378.0"/>
      </g>
     </g>
     <g id="line2d_65">
      <g>
       <use style="stroke:#000000;stroke-width:0.5;" x="312.964041987" xlink:href="#m5284c7e2a0" y="43.2"/>
      </g>
     </g>
    </g>
    <g id="xtick_27">
     <g id="line2d_66">
      <g>
       <use style="stroke:#000000;stroke-width:0.5;" x="320.033343634" xlink:href="#m177f7580d0" y="378.0"/>
      </g>
     </g>
     <g id="line2d_67">
      <g>
       <use style="stroke:#000000;stroke-width:0.5;" x="320.033343634" xlink:href="#m5284c7e2a0" y="43.2"/>
      </g>
     </g>
    </g>
    <g id="xtick_28">
     <g id="line2d_68">
      <g>
       <use style="stroke:#000000;stroke-width:0.5;" x="326.010353012" xlink:href="#m177f7580d0" y="378.0"/>
      </g>
     </g>
     <g id="line2d_69">
      <g>
       <use style="stroke:#000000;stroke-width:0.5;" x="326.010353012" xlink:href="#m5284c7e2a0" y="43.2"/>
      </g>
     </g>
    </g>
    <g id="xtick_29">
     <g id="line2d_70">
      <g>
       <use style="stroke:#000000;stroke-width:0.5;" x="331.187874039" xlink:href="#m177f7580d0" y="378.0"/>
      </g>
     </g>
     <g id="line2d_71">
      <g>
       <use style="stroke:#000000;stroke-width:0.5;" x="331.187874039" xlink:href="#m5284c7e2a0" y="43.2"/>
      </g>
     </g>
    </g>
    <g id="xtick_30">
     <g id="line2d_72">
      <g>
       <use style="stroke:#000000;stroke-width:0.5;" x="335.754771243" xlink:href="#m177f7580d0" y="378.0"/>
      </g>
     </g>
     <g id="line2d_73">
      <g>
       <use style="stroke:#000000;stroke-width:0.5;" x="335.754771243" xlink:href="#m5284c7e2a0" y="43.2"/>
      </g>
     </g>
    </g>
    <g id="xtick_31">
     <g id="line2d_74">
      <g>
       <use style="stroke:#000000;stroke-width:0.5;" x="366.715958013" xlink:href="#m177f7580d0" y="378.0"/>
      </g>
     </g>
     <g id="line2d_75">
      <g>
       <use style="stroke:#000000;stroke-width:0.5;" x="366.715958013" xlink:href="#m5284c7e2a0" y="43.2"/>
      </g>
     </g>
    </g>
    <g id="xtick_32">
     <g id="line2d_76">
      <g>
       <use style="stroke:#000000;stroke-width:0.5;" x="382.437385621" xlink:href="#m177f7580d0" y="378.0"/>
      </g>
     </g>
     <g id="line2d_77">
      <g>
       <use style="stroke:#000000;stroke-width:0.5;" x="382.437385621" xlink:href="#m5284c7e2a0" y="43.2"/>
      </g>
     </g>
    </g>
    <g id="xtick_33">
     <g id="line2d_78">
      <g>
       <use style="stroke:#000000;stroke-width:0.5;" x="393.591916026" xlink:href="#m177f7580d0" y="378.0"/>
      </g>
     </g>
     <g id="line2d_79">
      <g>
       <use style="stroke:#000000;stroke-width:0.5;" x="393.591916026" xlink:href="#m5284c7e2a0" y="43.2"/>
      </g>
     </g>
    </g>
    <g id="xtick_34">
     <g id="line2d_80">
      <g>
       <use style="stroke:#000000;stroke-width:0.5;" x="402.244041987" xlink:href="#m177f7580d0" y="378.0"/>
      </g>
     </g>
     <g id="line2d_81">
      <g>
       <use style="stroke:#000000;stroke-width:0.5;" x="402.244041987" xlink:href="#m5284c7e2a0" y="43.2"/>
      </g>
     </g>
    </g>
    <g id="xtick_35">
     <g id="line2d_82">
      <g>
       <use style="stroke:#000000;stroke-width:0.5;" x="409.313343634" xlink:href="#m177f7580d0" y="378.0"/>
      </g>
     </g>
     <g id="line2d_83">
      <g>
       <use style="stroke:#000000;stroke-width:0.5;" x="409.313343634" xlink:href="#m5284c7e2a0" y="43.2"/>
      </g>
     </g>
    </g>
    <g id="xtick_36">
     <g id="line2d_84">
      <g>
       <use style="stroke:#000000;stroke-width:0.5;" x="415.290353012" xlink:href="#m177f7580d0" y="378.0"/>
      </g>
     </g>
     <g id="line2d_85">
      <g>
       <use style="stroke:#000000;stroke-width:0.5;" x="415.290353012" xlink:href="#m5284c7e2a0" y="43.2"/>
      </g>
     </g>
    </g>
    <g id="xtick_37">
     <g id="line2d_86">
      <g>
       <use style="stroke:#000000;stroke-width:0.5;" x="420.467874039" xlink:href="#m177f7580d0" y="378.0"/>
      </g>
     </g>
     <g id="line2d_87">
      <g>
       <use style="stroke:#000000;stroke-width:0.5;" x="420.467874039" xlink:href="#m5284c7e2a0" y="43.2"/>
      </g>
     </g>
    </g>
    <g id="xtick_38">
     <g id="line2d_88">
      <g>
       <use style="stroke:#000000;stroke-width:0.5;" x="425.034771243" xlink:href="#m177f7580d0" y="378.0"/>
      </g>
     </g>
     <g id="line2d_89">
      <g>
       <use style="stroke:#000000;stroke-width:0.5;" x="425.034771243" xlink:href="#m5284c7e2a0" y="43.2"/>
      </g>
     </g>
    </g>
    <g id="xtick_39">
     <g id="line2d_90">
      <g>
       <use style="stroke:#000000;stroke-width:0.5;" x="455.995958013" xlink:href="#m177f7580d0" y="378.0"/>
      </g>
     </g>
     <g id="line2d_91">
      <g>
       <use style="stroke:#000000;stroke-width:0.5;" x="455.995958013" xlink:href="#m5284c7e2a0" y="43.2"/>
      </g>
     </g>
    </g>
    <g id="xtick_40">
     <g id="line2d_92">
      <g>
       <use style="stroke:#000000;stroke-width:0.5;" x="471.717385621" xlink:href="#m177f7580d0" y="378.0"/>
      </g>
     </g>
     <g id="line2d_93">
      <g>
       <use style="stroke:#000000;stroke-width:0.5;" x="471.717385621" xlink:href="#m5284c7e2a0" y="43.2"/>
      </g>
     </g>
    </g>
    <g id="xtick_41">
     <g id="line2d_94">
      <g>
       <use style="stroke:#000000;stroke-width:0.5;" x="482.871916026" xlink:href="#m177f7580d0" y="378.0"/>
      </g>
     </g>
     <g id="line2d_95">
      <g>
       <use style="stroke:#000000;stroke-width:0.5;" x="482.871916026" xlink:href="#m5284c7e2a0" y="43.2"/>
      </g>
     </g>
    </g>
    <g id="xtick_42">
     <g id="line2d_96">
      <g>
       <use style="stroke:#000000;stroke-width:0.5;" x="491.524041987" xlink:href="#m177f7580d0" y="378.0"/>
      </g>
     </g>
     <g id="line2d_97">
      <g>
       <use style="stroke:#000000;stroke-width:0.5;" x="491.524041987" xlink:href="#m5284c7e2a0" y="43.2"/>
      </g>
     </g>
    </g>
    <g id="xtick_43">
     <g id="line2d_98">
      <g>
       <use style="stroke:#000000;stroke-width:0.5;" x="498.593343634" xlink:href="#m177f7580d0" y="378.0"/>
      </g>
     </g>
     <g id="line2d_99">
      <g>
       <use style="stroke:#000000;stroke-width:0.5;" x="498.593343634" xlink:href="#m5284c7e2a0" y="43.2"/>
      </g>
     </g>
    </g>
    <g id="xtick_44">
     <g id="line2d_100">
      <g>
       <use style="stroke:#000000;stroke-width:0.5;" x="504.570353012" xlink:href="#m177f7580d0" y="378.0"/>
      </g>
     </g>
     <g id="line2d_101">
      <g>
       <use style="stroke:#000000;stroke-width:0.5;" x="504.570353012" xlink:href="#m5284c7e2a0" y="43.2"/>
      </g>
     </g>
    </g>
    <g id="xtick_45">
     <g id="line2d_102">
      <g>
       <use style="stroke:#000000;stroke-width:0.5;" x="509.747874039" xlink:href="#m177f7580d0" y="378.0"/>
      </g>
     </g>
     <g id="line2d_103">
      <g>
       <use style="stroke:#000000;stroke-width:0.5;" x="509.747874039" xlink:href="#m5284c7e2a0" y="43.2"/>
      </g>
     </g>
    </g>
    <g id="xtick_46">
     <g id="line2d_104">
      <g>
       <use style="stroke:#000000;stroke-width:0.5;" x="514.314771243" xlink:href="#m177f7580d0" y="378.0"/>
      </g>
     </g>
     <g id="line2d_105">
      <g>
       <use style="stroke:#000000;stroke-width:0.5;" x="514.314771243" xlink:href="#m5284c7e2a0" y="43.2"/>
      </g>
     </g>
    </g>
    <g id="text_7">
     <!-- $\nu (Hz)$ -->
     <defs>
      <path d="
M31 -24.8125
Q25.4375 -20.4062 21.4062 -14.7188
Q17.3906 -9.03125 14.8125 -2.57812
Q12.25 3.85938 10.9844 10.8906
Q9.71875 17.9219 9.71875 25
Q9.71875 32.1719 10.9844 39.2031
Q12.25 46.2344 14.8594 52.7344
Q17.4844 59.2344 21.5312 64.8906
Q25.5938 70.5625 31 74.8125
Q31 75 31.5 75
L32.4219 75
Q32.7188 75 32.9531 74.7344
Q33.2031 74.4688 33.2031 74.125
Q33.2031 73.6875 33.0156 73.4844
Q28.125 68.7031 24.875 63.2344
Q21.625 57.7656 19.6406 51.5781
Q17.6719 45.4062 16.7969 38.7812
Q15.9219 32.1719 15.9219 25
Q15.9219 -6.78125 32.9062 -23.2969
Q33.2031 -23.5781 33.2031 -24.125
Q33.2031 -24.3594 32.9375 -24.6719
Q32.6719 -25 32.4219 -25
L31.5 -25
Q31 -25 31 -24.8125" id="Cmr10-28"/>
      <path d="
M6.5 -25
Q5.60938 -25 5.60938 -24.125
Q5.60938 -23.6875 5.8125 -23.4844
Q22.9062 -6.78125 22.9062 25
Q22.9062 56.7812 6 73.2969
Q5.60938 73.5312 5.60938 74.125
Q5.60938 74.4688 5.875 74.7344
Q6.15625 75 6.5 75
L7.42188 75
Q7.71875 75 7.90625 74.8125
Q15.0938 69.1406 19.875 61.0312
Q24.6562 52.9375 26.875 43.75
Q29.1094 34.5781 29.1094 25
Q29.1094 17.9219 27.9062 11.0625
Q26.7031 4.20312 24.0938 -2.45312
Q21.4844 -9.125 17.4844 -14.7656
Q13.4844 -20.4062 7.90625 -24.8125
Q7.71875 -25 7.42188 -25
z
" id="Cmr10-29"/>
      <path d="
M4.89062 -1.125
Q4.10938 -1.125 4.10938 -0.203125
Q4.10938 0.296875 4.29688 0.484375
Q6.98438 5.125 10.7656 9.34375
Q14.5469 13.5781 19.3594 17.8906
Q24.1719 22.2188 29.0312 26.5625
Q33.8906 30.9062 36.9219 34.2812
L36.5312 34.2812
Q34.3281 34.2812 30.0781 35.6875
Q25.8281 37.1094 23.3906 37.1094
Q20.75 37.1094 18.25 35.9531
Q15.7656 34.8125 15.0938 32.4219
Q14.9375 31.6875 14.3125 31.6875
L13.0938 31.6875
Q12.3125 31.6875 12.3125 32.7188
L12.3125 33.0156
Q13.0938 35.9375 14.875 38.4688
Q16.6562 41.0156 19.2656 42.5938
Q21.875 44.1875 24.7031 44.1875
Q26.7031 44.1875 28.0156 43.2812
Q29.3438 42.3906 31.0938 40.4844
Q32.8594 38.5781 33.9531 37.75
Q35.0625 36.9219 36.7188 36.9219
Q38.9219 36.9219 40.6562 38.9219
Q42.3906 40.9219 44.0938 43.8906
Q44.3906 44.1875 44.8281 44.1875
L46 44.1875
Q46.3438 44.1875 46.5625 43.9375
Q46.7812 43.7031 46.7812 43.3125
Q46.7812 42.9688 46.5781 42.6719
Q43.8906 38.0312 40.2969 34
Q36.7188 29.9844 30.9219 24.7812
Q25.1406 19.5781 21.1562 15.9844
Q17.1875 12.4062 13.7188 8.59375
Q14.5 8.79688 15.8281 8.79688
Q18.2656 8.79688 22.4844 7.39062
Q26.7031 6 29 6
Q31.5 6 34.0312 7.07812
Q36.5781 8.15625 38.4219 10.1094
Q40.2812 12.0625 40.9219 14.5938
Q41.1562 15.2812 41.7031 15.2812
L42.9219 15.2812
Q43.3125 15.2812 43.5469 14.9688
Q43.7969 14.6562 43.7969 14.3125
Q43.7969 14.2031 43.7031 14.0156
Q42.7812 10.2031 40.4844 6.76562
Q38.1875 3.32812 34.8438 1.09375
Q31.5 -1.125 27.6875 -1.125
Q25.7812 -1.125 24.4531 -0.234375
Q23.1406 0.640625 21.3594 2.5625
Q19.5781 4.5 18.4531 5.34375
Q17.3281 6.20312 15.7188 6.20312
Q10.75 6.20312 6.78125 -0.78125
Q6.45312 -1.125 6.10938 -1.125
z
" id="Cmmi10-7a"/>
      <path d="
M6.29688 0
Q5.07812 0 5.07812 1.3125
L13.625 35.2969
Q14.0156 37.0156 14.1094 37.9844
Q14.1094 39.5938 7.625 39.5938
Q6.59375 39.5938 6.59375 40.9219
Q6.64062 41.1562 6.8125 41.7969
Q6.98438 42.4375 7.25 42.7656
Q7.51562 43.1094 8.01562 43.1094
L21.4844 44.1875
Q22.7031 44.1875 22.7031 42.9219
L12.8906 3.71875
Q20.7969 6.34375 27.4531 11.9531
Q34.125 17.5781 38.7344 25.1875
Q43.3594 32.8125 45.4062 41.0156
Q45.7969 42.4375 46.9688 43.3125
Q48.1406 44.1875 49.6094 44.1875
Q50.9219 44.1875 51.75 43.4062
Q52.5938 42.625 52.5938 41.3125
Q52.5938 39.7031 51.2656 36.4062
Q49.9531 33.1094 48.6875 30.5156
Q44.7344 22.6562 38.1875 16.1094
Q34.0781 12.0156 29.3594 8.84375
Q24.6562 5.67188 19.5312 3.4375
Q14.4062 1.21875 8.6875 0
z
" id="Cmmi10-ba"/>
      <path d="
M4.6875 0
Q3.71875 0 3.71875 1.3125
Q3.76562 1.5625 3.90625 2.17188
Q4.04688 2.78125 4.3125 3.14062
Q4.59375 3.51562 4.98438 3.51562
Q11.0781 3.51562 13.4844 4.20312
Q14.7969 4.64062 15.375 6.89062
L29.1094 61.8125
Q29.2969 62.7969 29.2969 63.1875
Q29.2969 64.2656 28.0781 64.4062
Q26.2188 64.7969 20.9062 64.7969
Q19.9219 64.7969 19.9219 66.1094
Q20.2656 67.3906 20.4531 67.8438
Q20.6562 68.3125 21.5781 68.3125
L48.4844 68.3125
Q49.5156 68.3125 49.5156 67
Q49.4688 66.75 49.3125 66.1562
Q49.1719 65.5781 48.9219 65.1875
Q48.6875 64.7969 48.1875 64.7969
Q42.0938 64.7969 39.7031 64.1094
Q38.375 63.625 37.7969 61.375
L31.7812 37.3125
L61.8125 37.3125
L67.9219 61.8125
Q68.1094 62.7969 68.1094 63.1875
Q68.1094 64.2656 66.8906 64.4062
Q64.9844 64.7969 59.7188 64.7969
Q58.6875 64.7969 58.6875 66.1094
Q59.0312 67.3906 59.2188 67.8438
Q59.4219 68.3125 60.4062 68.3125
L87.3125 68.3125
Q88.2812 68.3125 88.2812 67
Q88.2344 66.75 88.0781 66.1406
Q87.9375 65.5312 87.6719 65.1562
Q87.4062 64.7969 87.0156 64.7969
Q80.9062 64.7969 78.5156 64.1094
Q77.2031 63.6719 76.6094 61.375
L62.8906 6.5
Q62.7031 5.51562 62.7031 5.07812
Q62.7031 4.04688 63.9219 3.90625
Q65.8281 3.51562 71.0938 3.51562
Q72.125 3.51562 72.125 2.20312
Q71.8281 1.03125 71.5312 0.515625
Q71.2344 0 70.4062 0
L43.5 0
Q42.4844 0 42.4844 1.3125
Q42.6719 2.04688 42.7656 2.39062
Q42.875 2.73438 43.1406 3.125
Q43.4062 3.51562 43.7969 3.51562
Q49.9062 3.51562 52.2969 4.20312
Q53.6094 4.64062 54.2031 6.89062
L60.8906 33.7969
L30.9062 33.7969
L24.125 6.5
Q23.875 5.28125 23.875 5.07812
Q23.875 4.04688 25.0938 3.90625
Q27 3.51562 32.3281 3.51562
Q33.2969 3.51562 33.2969 2.20312
Q32.9531 0.875 32.7344 0.4375
Q32.5156 0 31.5938 0
z
" id="Cmmi10-48"/>
     </defs>
     <g transform="translate(279.78 409.56)scale(0.12 -0.12)">
      <use xlink:href="#Cmmi10-ba"/>
      <use transform="translate(49.4140625 0.0)" xlink:href="#Cmr10-28"/>
      <use transform="translate(88.232421875 0.0)" xlink:href="#Cmmi10-48"/>
      <use transform="translate(171.337890625 0.0)" xlink:href="#Cmmi10-7a"/>
      <use transform="translate(217.822265625 0.0)" xlink:href="#Cmr10-29"/>
     </g>
    </g>
   </g>
   <g id="matplotlib.axis_2">
    <g id="ytick_1">
     <g id="line2d_106">
      <path clip-path="url(#p332b41defa)" d="
M72 378
L518.4 378" style="fill:none;stroke:#000000;stroke-dasharray:1.000000,3.000000;stroke-dashoffset:0.0;stroke-width:0.5;"/>
     </g>
     <g id="line2d_107">
      <defs>
       <path d="
M0 0
L4 0" id="m728421d6d4" style="stroke:#000000;stroke-width:0.5;"/>
      </defs>
      <g>
       <use style="stroke:#000000;stroke-width:0.5;" x="72.0" xlink:href="#m728421d6d4" y="378.0"/>
      </g>
     </g>
     <g id="line2d_108">
      <defs>
       <path d="
M0 0
L-4 0" id="mcb0005524f" style="stroke:#000000;stroke-width:0.5;"/>
      </defs>
      <g>
       <use style="stroke:#000000;stroke-width:0.5;" x="518.4" xlink:href="#mcb0005524f" y="378.0"/>
      </g>
     </g>
     <g id="text_8">
      <!-- 160 -->
      <defs>
       <path d="
M10.5938 35.2969
L73.1875 35.2969
L73.1875 27.3906
L10.5938 27.3906
z
" id="DejaVuSerif-2212"/>
      </defs>
      <g transform="translate(37.1075 381.31125)scale(0.12 -0.12)">
       <use xlink:href="#DejaVuSerif-2212"/>
       <use x="83.7890625" xlink:href="#DejaVuSerif-31"/>
       <use x="147.412109375" xlink:href="#DejaVuSerif-36"/>
       <use x="211.03515625" xlink:href="#DejaVuSerif-30"/>
      </g>
     </g>
    </g>
    <g id="ytick_2">
     <g id="line2d_109">
      <path clip-path="url(#p332b41defa)" d="
M72 330.171
L518.4 330.171" style="fill:none;stroke:#000000;stroke-dasharray:1.000000,3.000000;stroke-dashoffset:0.0;stroke-width:0.5;"/>
     </g>
     <g id="line2d_110">
      <g>
       <use style="stroke:#000000;stroke-width:0.5;" x="72.0" xlink:href="#m728421d6d4" y="330.171428571"/>
      </g>
     </g>
     <g id="line2d_111">
      <g>
       <use style="stroke:#000000;stroke-width:0.5;" x="518.4" xlink:href="#mcb0005524f" y="330.171428571"/>
      </g>
     </g>
     <g id="text_9">
      <!-- 150 -->
      <g transform="translate(37.1075 333.482678571)scale(0.12 -0.12)">
       <use xlink:href="#DejaVuSerif-2212"/>
       <use x="83.7890625" xlink:href="#DejaVuSerif-31"/>
       <use x="147.412109375" xlink:href="#DejaVuSerif-35"/>
       <use x="211.03515625" xlink:href="#DejaVuSerif-30"/>
      </g>
     </g>
    </g>
    <g id="ytick_3">
     <g id="line2d_112">
      <path clip-path="url(#p332b41defa)" d="
M72 282.343
L518.4 282.343" style="fill:none;stroke:#000000;stroke-dasharray:1.000000,3.000000;stroke-dashoffset:0.0;stroke-width:0.5;"/>
     </g>
     <g id="line2d_113">
      <g>
       <use style="stroke:#000000;stroke-width:0.5;" x="72.0" xlink:href="#m728421d6d4" y="282.342857143"/>
      </g>
     </g>
     <g id="line2d_114">
      <g>
       <use style="stroke:#000000;stroke-width:0.5;" x="518.4" xlink:href="#mcb0005524f" y="282.342857143"/>
      </g>
     </g>
     <g id="text_10">
      <!-- 140 -->
      <g transform="translate(37.1075 285.654107143)scale(0.12 -0.12)">
       <use xlink:href="#DejaVuSerif-2212"/>
       <use x="83.7890625" xlink:href="#DejaVuSerif-31"/>
       <use x="147.412109375" xlink:href="#DejaVuSerif-34"/>
       <use x="211.03515625" xlink:href="#DejaVuSerif-30"/>
      </g>
     </g>
    </g>
    <g id="ytick_4">
     <g id="line2d_115">
      <path clip-path="url(#p332b41defa)" d="
M72 234.514
L518.4 234.514" style="fill:none;stroke:#000000;stroke-dasharray:1.000000,3.000000;stroke-dashoffset:0.0;stroke-width:0.5;"/>
     </g>
     <g id="line2d_116">
      <g>
       <use style="stroke:#000000;stroke-width:0.5;" x="72.0" xlink:href="#m728421d6d4" y="234.514285714"/>
      </g>
     </g>
     <g id="line2d_117">
      <g>
       <use style="stroke:#000000;stroke-width:0.5;" x="518.4" xlink:href="#mcb0005524f" y="234.514285714"/>
      </g>
     </g>
     <g id="text_11">
      <!-- 130 -->
      <g transform="translate(37.1075 237.825535714)scale(0.12 -0.12)">
       <use xlink:href="#DejaVuSerif-2212"/>
       <use x="83.7890625" xlink:href="#DejaVuSerif-31"/>
       <use x="147.412109375" xlink:href="#DejaVuSerif-33"/>
       <use x="211.03515625" xlink:href="#DejaVuSerif-30"/>
      </g>
     </g>
    </g>
    <g id="ytick_5">
     <g id="line2d_118">
      <path clip-path="url(#p332b41defa)" d="
M72 186.686
L518.4 186.686" style="fill:none;stroke:#000000;stroke-dasharray:1.000000,3.000000;stroke-dashoffset:0.0;stroke-width:0.5;"/>
     </g>
     <g id="line2d_119">
      <g>
       <use style="stroke:#000000;stroke-width:0.5;" x="72.0" xlink:href="#m728421d6d4" y="186.685714286"/>
      </g>
     </g>
     <g id="line2d_120">
      <g>
       <use style="stroke:#000000;stroke-width:0.5;" x="518.4" xlink:href="#mcb0005524f" y="186.685714286"/>
      </g>
     </g>
     <g id="text_12">
      <!-- 120 -->
      <g transform="translate(37.1075 189.996964286)scale(0.12 -0.12)">
       <use xlink:href="#DejaVuSerif-2212"/>
       <use x="83.7890625" xlink:href="#DejaVuSerif-31"/>
       <use x="147.412109375" xlink:href="#DejaVuSerif-32"/>
       <use x="211.03515625" xlink:href="#DejaVuSerif-30"/>
      </g>
     </g>
    </g>
    <g id="ytick_6">
     <g id="line2d_121">
      <path clip-path="url(#p332b41defa)" d="
M72 138.857
L518.4 138.857" style="fill:none;stroke:#000000;stroke-dasharray:1.000000,3.000000;stroke-dashoffset:0.0;stroke-width:0.5;"/>
     </g>
     <g id="line2d_122">
      <g>
       <use style="stroke:#000000;stroke-width:0.5;" x="72.0" xlink:href="#m728421d6d4" y="138.857142857"/>
      </g>
     </g>
     <g id="line2d_123">
      <g>
       <use style="stroke:#000000;stroke-width:0.5;" x="518.4" xlink:href="#mcb0005524f" y="138.857142857"/>
      </g>
     </g>
     <g id="text_13">
      <!-- 110 -->
      <g transform="translate(37.1075 142.168392857)scale(0.12 -0.12)">
       <use xlink:href="#DejaVuSerif-2212"/>
       <use x="83.7890625" xlink:href="#DejaVuSerif-31"/>
       <use x="147.412109375" xlink:href="#DejaVuSerif-31"/>
       <use x="211.03515625" xlink:href="#DejaVuSerif-30"/>
      </g>
     </g>
    </g>
    <g id="ytick_7">
     <g id="line2d_124">
      <path clip-path="url(#p332b41defa)" d="
M72 91.0286
L518.4 91.0286" style="fill:none;stroke:#000000;stroke-dasharray:1.000000,3.000000;stroke-dashoffset:0.0;stroke-width:0.5;"/>
     </g>
     <g id="line2d_125">
      <g>
       <use style="stroke:#000000;stroke-width:0.5;" x="72.0" xlink:href="#m728421d6d4" y="91.0285714286"/>
      </g>
     </g>
     <g id="line2d_126">
      <g>
       <use style="stroke:#000000;stroke-width:0.5;" x="518.4" xlink:href="#mcb0005524f" y="91.0285714286"/>
      </g>
     </g>
     <g id="text_14">
      <!-- 100 -->
      <g transform="translate(37.1075 94.3398214286)scale(0.12 -0.12)">
       <use xlink:href="#DejaVuSerif-2212"/>
       <use x="83.7890625" xlink:href="#DejaVuSerif-31"/>
       <use x="147.412109375" xlink:href="#DejaVuSerif-30"/>
       <use x="211.03515625" xlink:href="#DejaVuSerif-30"/>
      </g>
     </g>
    </g>
    <g id="ytick_8">
     <g id="line2d_127">
      <path clip-path="url(#p332b41defa)" d="
M72 43.2
L518.4 43.2" style="fill:none;stroke:#000000;stroke-dasharray:1.000000,3.000000;stroke-dashoffset:0.0;stroke-width:0.5;"/>
     </g>
     <g id="line2d_128">
      <g>
       <use style="stroke:#000000;stroke-width:0.5;" x="72.0" xlink:href="#m728421d6d4" y="43.2"/>
      </g>
     </g>
     <g id="line2d_129">
      <g>
       <use style="stroke:#000000;stroke-width:0.5;" x="518.4" xlink:href="#mcb0005524f" y="43.2"/>
      </g>
     </g>
     <g id="text_15">
      <!-- 90 -->
      <defs>
       <path d="
M46.7812 32.6719
Q43.5 29 39.25 27.1875
Q35.0156 25.3906 29.6875 25.3906
Q18.8438 25.3906 12.5625 31.9375
Q6.29688 38.4844 6.29688 49.8125
Q6.29688 60.8906 13.1094 67.5469
Q19.9219 74.2188 31.2969 74.2188
Q43.6562 74.2188 50.2656 65.0156
Q56.8906 55.8125 56.8906 38.7188
Q56.8906 19.5781 49.0156 9.07812
Q41.1562 -1.42188 26.9062 -1.42188
Q23.0469 -1.42188 18.7969 -0.6875
Q14.5469 0.046875 10.1094 1.51562
L10.1094 13.625
L15.5781 13.625
Q16.2188 8.6875 19.3906 6.04688
Q22.5625 3.42188 27.875 3.42188
Q37.3594 3.42188 41.9844 10.5625
Q46.625 17.7188 46.7812 32.6719
M30.9062 69.3906
Q23.9688 69.3906 20.2812 64.3281
Q16.6094 59.2812 16.6094 49.8125
Q16.6094 40.3281 20.2812 35.25
Q23.9688 30.1719 30.9062 30.1719
Q37.8438 30.1719 41.5312 35.0781
Q45.2188 39.9844 45.2188 49.2188
Q45.2188 58.9375 41.5 64.1562
Q37.7969 69.3906 30.9062 69.3906" id="DejaVuSerif-39"/>
      </defs>
      <g transform="translate(44.7425 46.51125)scale(0.12 -0.12)">
       <use xlink:href="#DejaVuSerif-2212"/>
       <use x="83.7890625" xlink:href="#DejaVuSerif-39"/>
       <use x="147.412109375" xlink:href="#DejaVuSerif-30"/>
      </g>
     </g>
    </g>
    <g id="text_16">
     <!-- $S_k(dB / Hz)$ -->
     <defs>
      <path d="
M5.60938 -23
Q5.60938 -22.7031 5.71875 -22.6094
L40.4844 73.7812
Q40.6719 74.3594 41.1562 74.6719
Q41.6562 75 42.2812 75
Q43.1719 75 43.7188 74.4531
Q44.2812 73.9219 44.2812 73
L44.2812 72.6094
L9.51562 -23.7812
Q8.9375 -25 7.625 -25
Q6.78125 -25 6.1875 -24.4062
Q5.60938 -23.8281 5.60938 -23" id="Cmmi10-3d"/>
      <path d="
M6.10938 -2.20312
Q5.8125 -2.20312 5.5625 -1.85938
Q5.32812 -1.51562 5.32812 -1.21875
L11.0781 22.125
Q11.2812 22.7031 11.9219 22.7031
L13.0938 22.7031
Q13.4844 22.7031 13.7031 22.4062
Q13.9219 22.125 13.9219 21.6875
Q13.0938 18.2656 13.0938 15.5781
Q13.0938 8.34375 18.0625 4.82812
Q23.0469 1.3125 30.6094 1.3125
Q33.8906 1.3125 37.0625 2.92188
Q40.2344 4.54688 42.5938 7.125
Q44.9688 9.71875 46.375 12.9062
Q47.7969 16.1094 47.7969 19.3906
Q47.7969 22.9062 45.9375 25.6562
Q44.0938 28.4219 40.8281 29.2031
L28.6094 32.4219
Q23.6875 33.7344 20.75 37.7188
Q17.8281 41.7031 17.8281 46.6875
Q17.8281 52.6875 21.3906 58.25
Q24.9531 63.8125 30.6875 67.1562
Q36.4219 70.5156 42.3906 70.5156
Q46.9688 70.5156 50.7969 68.8281
Q54.6406 67.1406 56.6875 63.4844
L62.4062 70.2188
Q62.9844 70.5156 63.0938 70.5156
L63.7188 70.5156
Q64.1094 70.5156 64.3438 70.1719
Q64.5938 69.8281 64.5938 69.4844
L58.7969 46.2969
Q58.6406 45.6094 58.0156 45.6094
L56.7812 45.6094
Q55.9062 45.6094 55.9062 46.6875
Q56.3906 49.8594 56.3906 52.2031
Q56.3906 56.8438 54.7969 60.2812
Q53.2188 63.7188 50.0156 65.5
Q46.8281 67.2812 42.0938 67.2812
Q38.0938 67.2812 34.125 64.9844
Q30.1719 62.7031 27.7344 58.8906
Q25.2969 55.0781 25.2969 50.9844
Q25.2969 47.75 27.1719 45.2656
Q29.0469 42.7812 32.1719 41.8906
L44.3906 38.7188
Q47.7031 37.8438 50.1719 35.625
Q52.6406 33.4062 53.9062 30.3438
Q55.1719 27.2969 55.1719 23.6875
Q55.1719 18.9531 53.1719 14.3281
Q51.1719 9.71875 47.5781 5.90625
Q44 2.09375 39.4531 -0.046875
Q34.9062 -2.20312 30.1719 -2.20312
Q18.2656 -2.20312 13.0938 4.78125
L7.51562 -1.90625
Q6.9375 -2.20312 6.78125 -2.20312
z
" id="Cmmi10-53"/>
      <path d="
M4.98438 0
Q4 0 4 1.3125
Q4.04688 1.5625 4.1875 2.14062
Q4.34375 2.73438 4.57812 3.125
Q4.82812 3.51562 5.32812 3.51562
Q8.15625 3.51562 10.25 3.65625
Q12.3594 3.8125 13.8125 4.20312
Q14.9844 4.64062 15.7188 6.89062
L29.3906 61.8125
Q29.5938 62.7969 29.5938 63.1875
Q29.5938 64.2656 28.4219 64.4062
Q26.5156 64.7969 21.1875 64.7969
Q20.2188 64.7969 20.2188 66.1094
Q20.2656 66.3594 20.4062 66.9688
Q20.5625 67.5781 20.8281 67.9375
Q21.0938 68.3125 21.4844 68.3125
L57.3281 68.3125
Q60.5938 68.3125 63.7969 67.5
Q67 66.7031 69.7031 64.9375
Q72.4062 63.1875 74 60.5625
Q75.5938 57.9531 75.5938 54.5
Q75.5938 50.7344 73.6562 47.5
Q71.7344 44.2812 68.6719 41.8906
Q65.625 39.5 62.0781 37.9531
Q58.5469 36.4219 54.6875 35.6875
Q57.4219 35.6875 60.2188 34.6094
Q63.0312 33.5469 65.2344 31.6875
Q67.4375 29.8281 68.7812 27.2344
Q70.125 24.6562 70.125 21.6875
Q70.125 15.6719 65.9219 10.6875
Q61.7188 5.71875 55.3438 2.85938
Q48.9688 0 43.0156 0
z

M23.3906 4.29688
Q23.3906 3.51562 26.8125 3.51562
L41.1094 3.51562
Q46 3.51562 50.4844 6.21875
Q54.9844 8.9375 57.6875 13.4219
Q60.4062 17.9219 60.4062 22.7969
Q60.4062 25.7812 59.1562 28.4375
Q57.9062 31.1094 55.5625 32.6406
Q53.2188 34.1875 50.2031 34.1875
L30.7188 34.1875
L23.7812 6.5
Q23.3906 5.125 23.3906 4.29688
M31.3906 36.8125
L46.5781 36.8125
Q51.375 36.8125 55.8906 39.25
Q60.4062 41.7031 63.25 45.8906
Q66.1094 50.0938 66.1094 54.7812
Q66.1094 59.125 63.3906 61.9531
Q60.6875 64.7969 56.3906 64.7969
L42.6719 64.7969
Q39.9844 64.7969 39.0625 64.2969
Q38.1406 63.8125 37.5 61.375
z
" id="Cmmi10-42"/>
      <path d="
M17.3906 -1.125
Q11.0781 -1.125 7.4375 3.64062
Q3.8125 8.40625 3.8125 14.8906
Q3.8125 21.2969 7.125 28.1719
Q10.4531 35.0625 16.0938 39.625
Q21.7344 44.1875 28.2188 44.1875
Q31.1562 44.1875 33.5156 42.5469
Q35.8906 40.9219 37.2031 38.1875
L42.8281 60.5
Q43.2188 62.2031 43.3125 63.1875
Q43.3125 64.7969 36.8125 64.7969
Q35.7969 64.7969 35.7969 66.1094
Q35.8438 66.3594 36.0156 66.9844
Q36.1875 67.625 36.4531 67.9688
Q36.7188 68.3125 37.2031 68.3125
L50.6875 69.3906
Q51.9062 69.3906 51.9062 68.1094
L37.5 10.5938
Q36.8125 8.9375 36.8125 5.8125
Q36.8125 1.51562 39.7031 1.51562
Q42.8281 1.51562 44.4531 5.48438
Q46.0938 9.46875 47.2188 14.7031
Q47.4062 15.2812 48 15.2812
L49.2188 15.2812
Q49.6094 15.2812 49.8438 14.9375
Q50.0938 14.5938 50.0938 14.3125
Q48.3438 7.32812 46.2656 3.09375
Q44.1875 -1.125 39.5 -1.125
Q36.1406 -1.125 33.5469 0.84375
Q30.9531 2.82812 30.3281 6.10938
Q23.875 -1.125 17.3906 -1.125
M17.4844 1.51562
Q21.0938 1.51562 24.4844 4.21875
Q27.875 6.9375 30.3281 10.5938
Q30.4219 10.6875 30.4219 10.9844
L35.8906 33.0156
Q35.2969 36.5312 33.2969 39.0625
Q31.2969 41.6094 27.9844 41.6094
Q24.6094 41.6094 21.7031 38.8438
Q18.7969 36.0781 16.7969 32.3281
Q14.8438 28.3281 13.0625 21.3438
Q11.2812 14.3594 11.2812 10.5
Q11.2812 7.03125 12.7656 4.26562
Q14.2656 1.51562 17.4844 1.51562" id="Cmmi10-64"/>
      <path d="
M5.32812 1.8125
Q5.32812 2.39062 5.42188 2.6875
L19.9219 60.5
Q20.3125 62.2031 20.4062 63.1875
Q20.4062 64.7969 13.9219 64.7969
Q12.8906 64.7969 12.8906 66.1094
Q12.9375 66.3594 13.1094 66.9844
Q13.2812 67.625 13.5469 67.9688
Q13.8125 68.3125 14.3125 68.3125
L27.7812 69.3906
L28.0781 69.3906
Q28.0781 69.2812 28.4219 69.1094
Q28.7656 68.9531 28.8125 68.8906
Q29 68.4062 29 68.1094
L18.5 26.3125
Q22.125 27.8281 27.6094 33.5156
Q33.1094 39.2031 36.2031 41.6875
Q39.3125 44.1875 44 44.1875
Q46.7812 44.1875 48.7344 42.2812
Q50.6875 40.375 50.6875 37.5938
Q50.6875 35.8438 49.9531 34.3438
Q49.2188 32.8594 47.8906 31.9219
Q46.5781 31 44.8281 31
Q43.2188 31 42.1094 32
Q41.0156 33.0156 41.0156 34.625
Q41.0156 37.0156 42.7031 38.6406
Q44.3906 40.2812 46.7812 40.2812
Q45.7969 41.6094 43.7969 41.6094
Q40.8281 41.6094 38.0625 39.8906
Q35.2969 38.1875 32.0938 34.9844
Q28.9062 31.7812 26.2656 29.125
Q23.6406 26.4688 21.3906 25.0938
Q27.2969 24.4219 31.6406 22
Q35.9844 19.5781 35.9844 14.5938
Q35.9844 13.5781 35.5938 12.0156
Q34.7188 8.25 34.7188 6
Q34.7188 1.51562 37.7969 1.51562
Q41.4062 1.51562 43.2812 5.46875
Q45.1719 9.42188 46.3906 14.7031
Q46.5781 15.2812 47.2188 15.2812
L48.3906 15.2812
Q48.7812 15.2812 49.0469 15.0312
Q49.3125 14.7969 49.3125 14.4062
Q49.3125 14.3125 49.2188 14.1094
Q45.4531 -1.125 37.5938 -1.125
Q34.7656 -1.125 32.5938 0.1875
Q30.4219 1.51562 29.25 3.78125
Q28.0781 6.0625 28.0781 8.89062
Q28.0781 10.5 28.5156 12.2031
Q28.8125 13.375 28.8125 14.4062
Q28.8125 18.2656 25.3906 20.2656
Q21.9688 22.2656 17.5781 22.7031
L12.5 2.29688
Q12.1094 0.78125 10.9844 -0.171875
Q9.85938 -1.125 8.40625 -1.125
Q7.125 -1.125 6.21875 -0.265625
Q5.32812 0.59375 5.32812 1.8125" id="Cmmi10-6b"/>
     </defs>
     <g transform="translate(28.8675 240.54)rotate(-90.0)scale(0.12 -0.12)">
      <use xlink:href="#Cmmi10-53"/>
      <use transform="translate(61.279296875 -25.509375)scale(0.7)" xlink:href="#Cmmi10-6b"/>
      <use transform="translate(113.28125 0.0)" xlink:href="#Cmr10-28"/>
      <use transform="translate(152.099609375 0.0)" xlink:href="#Cmmi10-64"/>
      <use transform="translate(204.1015625 0.0)" xlink:href="#Cmmi10-42"/>
      <use transform="translate(279.8828125 0.0)" xlink:href="#Cmmi10-3d"/>
      <use transform="translate(329.8828125 0.0)" xlink:href="#Cmmi10-48"/>
      <use transform="translate(412.98828125 0.0)" xlink:href="#Cmmi10-7a"/>
      <use transform="translate(459.47265625 0.0)" xlink:href="#Cmr10-29"/>
     </g>
    </g>
   </g>
   <g id="patch_3">
    <path d="
M72 43.2
L518.4 43.2" style="fill:none;stroke:#000000;"/>
   </g>
   <g id="patch_4">
    <path d="
M518.4 378
L518.4 43.2" style="fill:none;stroke:#000000;"/>
   </g>
   <g id="patch_5">
    <path d="
M72 378
L518.4 378" style="fill:none;stroke:#000000;"/>
   </g>
   <g id="patch_6">
    <path d="
M72 378
L72 43.2" style="fill:none;stroke:#000000;"/>
   </g>
   <g id="text_17">
    <!-- 160 -->
    <g transform="translate(358.245159637 192.081123696)scale(0.12 -0.12)">
     <use xlink:href="#DejaVuSerif-31"/>
     <use x="63.623046875" xlink:href="#DejaVuSerif-36"/>
     <use x="127.24609375" xlink:href="#DejaVuSerif-30"/>
    </g>
   </g>
   <g id="text_18">
    <!-- 264 -->
    <g transform="translate(377.517498841 245.78615001)scale(0.12 -0.12)">
     <use xlink:href="#DejaVuSerif-32"/>
     <use x="63.623046875" xlink:href="#DejaVuSerif-36"/>
     <use x="127.24609375" xlink:href="#DejaVuSerif-34"/>
    </g>
   </g>
   <g id="text_19">
    <!-- 493 -->
    <g transform="translate(401.756314659 212.906065175)scale(0.12 -0.12)">
     <use xlink:href="#DejaVuSerif-34"/>
     <use x="63.623046875" xlink:href="#DejaVuSerif-39"/>
     <use x="127.24609375" xlink:href="#DejaVuSerif-33"/>
    </g>
   </g>
   <g id="text_20">
    <!-- 583 -->
    <defs>
     <path d="
M46.5781 19.9219
Q46.5781 27.7344 42.6875 32.0469
Q38.8125 36.375 31.7812 36.375
Q24.75 36.375 20.875 32.0469
Q17 27.7344 17 19.9219
Q17 12.0625 20.875 7.73438
Q24.75 3.42188 31.7812 3.42188
Q38.8125 3.42188 42.6875 7.73438
Q46.5781 12.0625 46.5781 19.9219
M44.5781 55.3281
Q44.5781 61.9688 41.2031 65.6719
Q37.8438 69.3906 31.7812 69.3906
Q25.7812 69.3906 22.3906 65.6719
Q19 61.9688 19 55.3281
Q19 48.6406 22.3906 44.9219
Q25.7812 41.2188 31.7812 41.2188
Q37.8438 41.2188 41.2031 44.9219
Q44.5781 48.6406 44.5781 55.3281
M39.3125 38.8125
Q47.6094 37.7031 52.25 32.6875
Q56.8906 27.6875 56.8906 19.9219
Q56.8906 9.67188 50.3906 4.125
Q43.8906 -1.42188 31.7812 -1.42188
Q19.7344 -1.42188 13.2031 4.125
Q6.6875 9.67188 6.6875 19.9219
Q6.6875 27.6875 11.3281 32.6875
Q15.9688 37.7031 24.3125 38.8125
Q16.9375 40.1406 13 44.4062
Q9.07812 48.6875 9.07812 55.3281
Q9.07812 64.1094 15.125 69.1562
Q21.1875 74.2188 31.7812 74.2188
Q42.3906 74.2188 48.4375 69.1562
Q54.5 64.1094 54.5 55.3281
Q54.5 48.6875 50.5625 44.4062
Q46.625 40.1406 39.3125 38.8125" id="DejaVuSerif-38"/>
    </defs>
    <g transform="translate(408.248737058 245.952163058)scale(0.12 -0.12)">
     <use xlink:href="#DejaVuSerif-35"/>
     <use x="63.623046875" xlink:href="#DejaVuSerif-38"/>
     <use x="127.24609375" xlink:href="#DejaVuSerif-33"/>
    </g>
   </g>
   <g id="text_21">
    <!-- 682 -->
    <g transform="translate(414.322885363 290.535891565)scale(0.12 -0.12)">
     <use xlink:href="#DejaVuSerif-36"/>
     <use x="63.623046875" xlink:href="#DejaVuSerif-38"/>
     <use x="127.24609375" xlink:href="#DejaVuSerif-32"/>
    </g>
   </g>
   <g id="text_22">
    <!-- 986 -->
    <g transform="translate(428.592988158 273.234159319)scale(0.12 -0.12)">
     <use xlink:href="#DejaVuSerif-39"/>
     <use x="63.623046875" xlink:href="#DejaVuSerif-38"/>
     <use x="127.24609375" xlink:href="#DejaVuSerif-36"/>
    </g>
   </g>
   <g id="text_23">
    <!-- Relative intensity noise (number in $kHz$) -->
    <defs>
     <path d="
M54.2031 25
L15.4844 25
L15.4844 24.6094
Q15.4844 14.1094 19.4375 8.76562
Q23.3906 3.42188 31.1094 3.42188
Q37.0156 3.42188 40.7969 6.51562
Q44.5781 9.625 46.0938 15.7188
L53.3281 15.7188
Q51.1719 7.17188 45.375 2.875
Q39.5938 -1.42188 30.1719 -1.42188
Q18.7969 -1.42188 11.8906 6.07812
Q4.98438 13.5781 4.98438 25.9844
Q4.98438 38.2812 11.7656 45.7969
Q18.5625 53.3281 29.5938 53.3281
Q41.3594 53.3281 47.6562 46.0625
Q53.9531 38.8125 54.2031 25
M43.6094 30.1719
Q43.3125 39.2656 39.7656 43.875
Q36.2344 48.4844 29.5938 48.4844
Q23.3906 48.4844 19.8281 43.8438
Q16.2656 39.2031 15.4844 30.1719
z
" id="DejaVuSerif-65"/>
     <path d="
M24.7031 0
L5.60938 46.6875
L-0.296875 46.6875
L-0.296875 51.9062
L23.5781 51.9062
L23.5781 46.6875
L15.2812 46.6875
L29.8906 10.9844
L44.4844 46.6875
L36.7188 46.6875
L36.7188 51.9062
L56.2031 51.9062
L56.2031 46.6875
L50.3906 46.6875
L31.2969 0
z
" id="DejaVuSerif-76"/>
     <path d="
M47.9062 36.1875
Q51.3125 35.25 53.7812 33.0312
Q56.25 30.8125 58.2031 26.8125
L68.7969 5.17188
L77.6875 5.17188
L77.6875 0
L60.5 0
L49.125 23.1875
Q45.8438 29.9375 43.1094 31.9062
Q40.375 33.8906 35.5938 33.8906
L24.7031 33.8906
L24.7031 5.17188
L35.0156 5.17188
L35.0156 0
L5.51562 0
L5.51562 5.17188
L14.7969 5.17188
L14.7969 67.6719
L5.51562 67.6719
L5.51562 72.9062
L42.4844 72.9062
Q53.125 72.9062 58.9062 67.8281
Q64.7031 62.75 64.7031 53.4219
Q64.7031 45.9062 60.4688 41.5781
Q56.25 37.25 47.9062 36.1875
M24.7031 39.1094
L39.1094 39.1094
Q46.4844 39.1094 50 42.5938
Q53.5156 46.0938 53.5156 53.4219
Q53.5156 60.75 50 64.2031
Q46.4844 67.6719 39.1094 67.6719
L24.7031 67.6719
z
" id="DejaVuSerif-52"/>
     <path d="
M35.4062 51.9062
L52.2031 51.9062
L52.2031 5.17188
L60.6875 5.17188
L60.6875 0
L43.2188 0
L43.2188 9.1875
Q40.7188 4 36.7656 1.28125
Q32.8125 -1.42188 27.5938 -1.42188
Q18.9531 -1.42188 14.875 3.48438
Q10.7969 8.40625 10.7969 18.8906
L10.7969 46.6875
L2.6875 46.6875
L2.6875 51.9062
L19.8281 51.9062
L19.8281 21.6875
Q19.8281 12.2031 22.1406 8.6875
Q24.4688 5.17188 30.4219 5.17188
Q36.6719 5.17188 39.9375 9.76562
Q43.2188 14.3594 43.2188 23.0938
L43.2188 46.6875
L35.4062 46.6875
z
" id="DejaVuSerif-75"/>
     <path d="
M39.7969 16.3125
L39.7969 27.2969
L28.2188 27.2969
Q21.5312 27.2969 18.25 24.4062
Q14.9844 21.5312 14.9844 15.5781
Q14.9844 10.1562 18.2969 6.98438
Q21.625 3.8125 27.2969 3.8125
Q32.9062 3.8125 36.3438 7.28125
Q39.7969 10.75 39.7969 16.3125
M48.7812 32.4219
L48.7812 5.17188
L56.7812 5.17188
L56.7812 0
L39.7969 0
L39.7969 5.60938
Q36.8125 2 32.9062 0.28125
Q29 -1.42188 23.7812 -1.42188
Q15.1406 -1.42188 10.0625 3.17188
Q4.98438 7.76562 4.98438 15.5781
Q4.98438 23.6406 10.7969 28.0781
Q16.6094 32.5156 27.2031 32.5156
L39.7969 32.5156
L39.7969 36.0781
Q39.7969 42 36.2031 45.2344
Q32.625 48.4844 26.125 48.4844
Q20.75 48.4844 17.5781 46.0469
Q14.4062 43.6094 13.625 38.8125
L8.98438 38.8125
L8.98438 49.3125
Q13.6719 51.3125 18.0938 52.3125
Q22.5156 53.3281 26.7031 53.3281
Q37.5 53.3281 43.1406 47.9688
Q48.7812 42.625 48.7812 32.4219" id="DejaVuSerif-61"/>
     <path d="
M5.60938 2.875
L5.60938 14.9844
L10.7969 14.9844
Q10.9844 9.1875 14.4219 6.29688
Q17.875 3.42188 24.6094 3.42188
Q30.6719 3.42188 33.8438 5.6875
Q37.0156 7.95312 37.0156 12.3125
Q37.0156 15.7188 34.6875 17.8125
Q32.375 19.9219 24.9062 22.3125
L18.4062 24.5156
Q11.7188 26.6562 8.71875 29.875
Q5.71875 33.1094 5.71875 38.0938
Q5.71875 45.2188 10.9375 49.2656
Q16.1562 53.3281 25.3906 53.3281
Q29.5 53.3281 34.0312 52.25
Q38.5781 51.1719 43.4062 49.125
L43.4062 37.7969
L38.2344 37.7969
Q38.0312 42.8281 34.7031 45.6562
Q31.3906 48.4844 25.6875 48.4844
Q20.0156 48.4844 17.1094 46.4844
Q14.2031 44.4844 14.2031 40.4844
Q14.2031 37.2031 16.4062 35.2188
Q18.6094 33.25 25.2031 31.2031
L32.3281 29
Q39.7031 26.7031 42.9375 23.2656
Q46.1875 19.8281 46.1875 14.4062
Q46.1875 7.03125 40.5469 2.79688
Q34.9062 -1.42188 25 -1.42188
Q19.9688 -1.42188 15.1875 -0.34375
Q10.4062 0.734375 5.60938 2.875" id="DejaVuSerif-73"/>
     <path d="
M51.8125 41.7969
Q54.3906 47.5156 58.4219 50.4219
Q62.4531 53.3281 67.8281 53.3281
Q75.9844 53.3281 79.9844 48.2656
Q83.9844 43.2188 83.9844 33.0156
L83.9844 5.17188
L92.0938 5.17188
L92.0938 0
L67.1875 0
L67.1875 5.17188
L75 5.17188
L75 31.9844
Q75 39.9375 72.6562 43.3125
Q70.3125 46.6875 64.8906 46.6875
Q58.8906 46.6875 55.7344 42.1406
Q52.5938 37.5938 52.5938 28.9062
L52.5938 5.17188
L60.4062 5.17188
L60.4062 0
L35.7969 0
L35.7969 5.17188
L43.6094 5.17188
L43.6094 32.3281
Q43.6094 40.0938 41.2656 43.3906
Q38.9219 46.6875 33.5 46.6875
Q27.4844 46.6875 24.3281 42.1406
Q21.1875 37.5938 21.1875 28.9062
L21.1875 5.17188
L29 5.17188
L29 0
L4.10938 0
L4.10938 5.17188
L12.2031 5.17188
L12.2031 46.7812
L3.60938 46.7812
L3.60938 51.9062
L21.1875 51.9062
L21.1875 42.6719
Q23.6875 47.8594 27.5312 50.5938
Q31.3906 53.3281 36.2812 53.3281
Q42.3281 53.3281 46.375 50.3125
Q50.4375 47.3125 51.8125 41.7969" id="DejaVuSerif-6d"/>
     <path d="
M7.07812 -15.5781
L7.07812 -10.7969
Q14.5938 -5.60938 17.8906 3.78125
Q21.1875 13.1875 21.1875 30.1719
Q21.1875 47.2188 17.8906 56.6094
Q14.5938 66.0156 7.07812 71.1875
L7.07812 75.9844
Q19 70.6562 25.0469 59.1094
Q31.1094 47.5625 31.1094 30.1719
Q31.1094 12.8438 25.0469 1.29688
Q19 -10.25 7.07812 -15.5781" id="DejaVuSerif-29"/>
     <path d="
M11.5312 5.17188
L11.5312 70.7969
L2.875 70.7969
L2.875 75.9844
L20.5156 75.9844
L20.5156 43.7969
Q23.1406 48.6875 27.2188 51
Q31.2969 53.3281 37.3125 53.3281
Q46.875 53.3281 52.9219 45.75
Q58.9844 38.1875 58.9844 25.9844
Q58.9844 13.7656 52.9219 6.17188
Q46.875 -1.42188 37.3125 -1.42188
Q31.2969 -1.42188 27.2188 0.890625
Q23.1406 3.21875 20.5156 8.10938
L20.5156 0
L2.875 0
L2.875 5.17188
z

M20.5156 23.3906
Q20.5156 14.0156 24.0938 9.10938
Q27.6875 4.20312 34.5156 4.20312
Q41.4062 4.20312 44.9375 9.71875
Q48.4844 15.2344 48.4844 25.9844
Q48.4844 36.7656 44.9375 42.2344
Q41.4062 47.7031 34.5156 47.7031
Q27.6875 47.7031 24.0938 42.7656
Q20.5156 37.8438 20.5156 28.5156
z
" id="DejaVuSerif-62"/>
     <path d="
M9.71875 68.0156
Q9.71875 70.2656 11.3438 71.9219
Q12.9844 73.5781 15.2812 73.5781
Q17.5312 73.5781 19.1562 71.9219
Q20.7969 70.2656 20.7969 68.0156
Q20.7969 65.7188 19.1875 64.1094
Q17.5781 62.5 15.2812 62.5
Q12.9844 62.5 11.3438 64.1094
Q9.71875 65.7188 9.71875 68.0156
M21.1875 5.17188
L29.6875 5.17188
L29.6875 0
L3.60938 0
L3.60938 5.17188
L12.2031 5.17188
L12.2031 46.6875
L3.60938 46.6875
L3.60938 51.9062
L21.1875 51.9062
z
" id="DejaVuSerif-69"/>
     <path d="
M10.7969 46.6875
L2.875 46.6875
L2.875 51.9062
L10.7969 51.9062
L10.7969 68.0156
L19.8281 68.0156
L19.8281 51.9062
L36.7188 51.9062
L36.7188 46.6875
L19.8281 46.6875
L19.8281 13.7188
Q19.8281 7.125 21.0938 5.26562
Q22.3594 3.42188 25.7812 3.42188
Q29.2969 3.42188 30.9062 5.48438
Q32.5156 7.5625 32.625 12.2031
L39.4062 12.2031
Q39.0156 5.125 35.5469 1.84375
Q32.0781 -1.42188 25 -1.42188
Q17.2344 -1.42188 14.0156 2.01562
Q10.7969 5.46875 10.7969 13.7188
z
" id="DejaVuSerif-74"/>
     <path d="
M21.5781 -9.51562
L25 -0.875
L5.60938 46.6875
L-0.296875 46.6875
L-0.296875 51.9062
L23.5781 51.9062
L23.5781 46.6875
L15.2812 46.6875
L29.8906 10.9844
L44.4844 46.6875
L36.7188 46.6875
L36.7188 51.9062
L56.2031 51.9062
L56.2031 46.6875
L50.3906 46.6875
L26.6094 -11.7188
Q24.1719 -17.7812 21.1875 -20
Q18.2188 -22.2188 12.7969 -22.2188
Q10.5 -22.2188 8.07812 -21.8281
Q5.67188 -21.4375 3.21875 -20.7031
L3.21875 -10.7969
L7.8125 -10.7969
Q8.10938 -14.1094 9.5 -15.5469
Q10.8906 -17 13.8125 -17
Q16.5 -17 18.1406 -15.5
Q19.7812 -14.0156 21.5781 -9.51562" id="DejaVuSerif-79"/>
     <path d="
M4.10938 0
L4.10938 5.17188
L12.2031 5.17188
L12.2031 46.6875
L3.60938 46.6875
L3.60938 51.9062
L21.1875 51.9062
L21.1875 42.6719
Q23.6875 47.9531 27.6562 50.6406
Q31.6406 53.3281 36.9219 53.3281
Q45.5156 53.3281 49.5625 48.3906
Q53.6094 43.4531 53.6094 33.0156
L53.6094 5.17188
L61.625 5.17188
L61.625 0
L36.8125 0
L36.8125 5.17188
L44.5781 5.17188
L44.5781 30.1719
Q44.5781 39.7031 42.2344 43.2344
Q39.8906 46.7812 33.9844 46.7812
Q27.7344 46.7812 24.4531 42.2031
Q21.1875 37.6406 21.1875 28.9062
L21.1875 5.17188
L29 5.17188
L29 0
z
" id="DejaVuSerif-6e"/>
     <path d="
M31.8906 -15.5781
Q20.0156 -10.25 13.9531 1.29688
Q7.90625 12.8438 7.90625 30.1719
Q7.90625 47.5625 13.9531 59.1094
Q20.0156 70.6562 31.8906 75.9844
L31.8906 71.1875
Q24.3594 66.0156 21.0938 56.6094
Q17.8281 47.2188 17.8281 30.1719
Q17.8281 13.1875 21.0938 3.78125
Q24.3594 -5.60938 31.8906 -10.7969
z
" id="DejaVuSerif-28"/>
     <path d="
M47.7969 52
L47.7969 39.0156
L42.625 39.0156
Q42.3906 42.875 40.4844 44.7812
Q38.5781 46.6875 34.9062 46.6875
Q28.2656 46.6875 24.7188 42.0938
Q21.1875 37.5 21.1875 28.9062
L21.1875 5.17188
L31.5938 5.17188
L31.5938 0
L4.10938 0
L4.10938 5.17188
L12.2031 5.17188
L12.2031 46.7812
L3.60938 46.7812
L3.60938 51.9062
L21.1875 51.9062
L21.1875 42.6719
Q23.8281 48.0938 27.9688 50.7031
Q32.125 53.3281 38.0938 53.3281
Q40.2812 53.3281 42.7031 52.9844
Q45.125 52.6406 47.7969 52" id="DejaVuSerif-72"/>
     <path d="
M30.0781 3.42188
Q37.3125 3.42188 40.9844 9.125
Q44.6719 14.8438 44.6719 25.9844
Q44.6719 37.1094 40.9844 42.7969
Q37.3125 48.4844 30.0781 48.4844
Q22.8594 48.4844 19.1719 42.7969
Q15.4844 37.1094 15.4844 25.9844
Q15.4844 14.8438 19.1875 9.125
Q22.9062 3.42188 30.0781 3.42188
M30.0781 -1.42188
Q18.75 -1.42188 11.8594 6.07812
Q4.98438 13.5781 4.98438 25.9844
Q4.98438 38.375 11.8438 45.8438
Q18.7031 53.3281 30.0781 53.3281
Q41.4531 53.3281 48.3125 45.8438
Q55.1719 38.375 55.1719 25.9844
Q55.1719 13.5781 48.3125 6.07812
Q41.4531 -1.42188 30.0781 -1.42188" id="DejaVuSerif-6f"/>
     <path d="
M20.5156 5.17188
L29 5.17188
L29 0
L2.875 0
L2.875 5.17188
L11.5312 5.17188
L11.5312 70.7969
L2.875 70.7969
L2.875 75.9844
L20.5156 75.9844
z
" id="DejaVuSerif-6c"/>
     <path id="DejaVuSerif-20"/>
    </defs>
    <g transform="translate(148.968 38.2)scale(0.144 -0.144)">
     <use transform="translate(0.0 0.015625)" xlink:href="#DejaVuSerif-52"/>
     <use transform="translate(75.29296875 0.015625)" xlink:href="#DejaVuSerif-65"/>
     <use transform="translate(134.47265625 0.015625)" xlink:href="#DejaVuSerif-6c"/>
     <use transform="translate(166.455078125 0.015625)" xlink:href="#DejaVuSerif-61"/>
     <use transform="translate(226.07421875 0.015625)" xlink:href="#DejaVuSerif-74"/>
     <use transform="translate(266.259765625 0.015625)" xlink:href="#DejaVuSerif-69"/>
     <use transform="translate(298.2421875 0.015625)" xlink:href="#DejaVuSerif-76"/>
     <use transform="translate(354.736328125 0.015625)" xlink:href="#DejaVuSerif-65"/>
     <use transform="translate(413.916015625 0.015625)" xlink:href="#DejaVuSerif-20"/>
     <use transform="translate(445.703125 0.015625)" xlink:href="#DejaVuSerif-69"/>
     <use transform="translate(477.685546875 0.015625)" xlink:href="#DejaVuSerif-6e"/>
     <use transform="translate(542.08984375 0.015625)" xlink:href="#DejaVuSerif-74"/>
     <use transform="translate(582.275390625 0.015625)" xlink:href="#DejaVuSerif-65"/>
     <use transform="translate(641.455078125 0.015625)" xlink:href="#DejaVuSerif-6e"/>
     <use transform="translate(705.859375 0.015625)" xlink:href="#DejaVuSerif-73"/>
     <use transform="translate(757.177734375 0.015625)" xlink:href="#DejaVuSerif-69"/>
     <use transform="translate(789.16015625 0.015625)" xlink:href="#DejaVuSerif-74"/>
     <use transform="translate(829.345703125 0.015625)" xlink:href="#DejaVuSerif-79"/>
     <use transform="translate(885.83984375 0.015625)" xlink:href="#DejaVuSerif-20"/>
     <use transform="translate(917.626953125 0.015625)" xlink:href="#DejaVuSerif-6e"/>
     <use transform="translate(982.03125 0.015625)" xlink:href="#DejaVuSerif-6f"/>
     <use transform="translate(1042.23632812 0.015625)" xlink:href="#DejaVuSerif-69"/>
     <use transform="translate(1074.21875 0.015625)" xlink:href="#DejaVuSerif-73"/>
     <use transform="translate(1125.53710938 0.015625)" xlink:href="#DejaVuSerif-65"/>
     <use transform="translate(1184.71679688 0.015625)" xlink:href="#DejaVuSerif-20"/>
     <use transform="translate(1216.50390625 0.015625)" xlink:href="#DejaVuSerif-28"/>
     <use transform="translate(1255.51757812 0.015625)" xlink:href="#DejaVuSerif-6e"/>
     <use transform="translate(1319.921875 0.015625)" xlink:href="#DejaVuSerif-75"/>
     <use transform="translate(1384.32617188 0.015625)" xlink:href="#DejaVuSerif-6d"/>
     <use transform="translate(1479.15039062 0.015625)" xlink:href="#DejaVuSerif-62"/>
     <use transform="translate(1543.1640625 0.015625)" xlink:href="#DejaVuSerif-65"/>
     <use transform="translate(1602.34375 0.015625)" xlink:href="#DejaVuSerif-72"/>
     <use transform="translate(1650.14648438 0.015625)" xlink:href="#DejaVuSerif-20"/>
     <use transform="translate(1681.93359375 0.015625)" xlink:href="#DejaVuSerif-69"/>
     <use transform="translate(1713.91601562 0.015625)" xlink:href="#DejaVuSerif-6e"/>
     <use transform="translate(1778.3203125 0.015625)" xlink:href="#DejaVuSerif-20"/>
     <use transform="translate(1810.10742188 0.015625)" xlink:href="#Cmmi10-6b"/>
     <use transform="translate(1862.109375 0.015625)" xlink:href="#Cmmi10-48"/>
     <use transform="translate(1945.21484375 0.015625)" xlink:href="#Cmmi10-7a"/>
     <use transform="translate(1991.69921875 0.015625)" xlink:href="#DejaVuSerif-29"/>
    </g>
   </g>
   <g id="legend_1">
    <g id="patch_7">
     <path d="
M402.515 76.92
L511.2 76.92
L511.2 50.4
L402.515 50.4
L402.515 76.92
z
" style="fill:#ffffff;stroke:#000000;"/>
    </g>
    <g id="line2d_130">
     <path d="
M412.595 63.12
L432.755 63.12" style="fill:none;stroke:#0000ff;stroke-linecap:square;"/>
    </g>
    <g id="line2d_131"/>
    <g id="text_24">
     <!-- $515\ 10W$ -->
     <defs>
      <path d="
M9.28125 0
L9.28125 3.51562
Q21.7812 3.51562 21.7812 6.6875
L21.7812 59.1875
Q16.6094 56.6875 8.6875 56.6875
L8.6875 60.2031
Q20.9531 60.2031 27.2031 66.6094
L28.6094 66.6094
Q28.9531 66.6094 29.2656 66.3281
Q29.5938 66.0625 29.5938 65.7188
L29.5938 6.6875
Q29.5938 3.51562 42.0938 3.51562
L42.0938 0
z
" id="Cmr10-31"/>
      <path d="
M25 -2.20312
Q12.75 -2.20312 8.32812 7.875
Q3.90625 17.9688 3.90625 31.8906
Q3.90625 40.5781 5.48438 48.2344
Q7.07812 55.9062 11.7812 61.25
Q16.5 66.6094 25 66.6094
Q31.5938 66.6094 35.7812 63.375
Q39.9844 60.1562 42.1875 55.0469
Q44.3906 49.9531 45.1875 44.1094
Q46 38.2812 46 31.8906
Q46 23.2969 44.4062 15.7969
Q42.8281 8.29688 38.1875 3.04688
Q33.5469 -2.20312 25 -2.20312
M25 0.390625
Q30.5625 0.390625 33.2969 6.09375
Q36.0312 11.8125 36.6719 18.75
Q37.3125 25.6875 37.3125 33.5
Q37.3125 41.0156 36.6719 47.3594
Q36.0312 53.7188 33.3125 58.8594
Q30.6094 64.0156 25 64.0156
Q19.3438 64.0156 16.6094 58.8281
Q13.875 53.6562 13.2344 47.3281
Q12.5938 41.0156 12.5938 33.5
Q12.5938 27.9375 12.8594 23
Q13.1406 18.0625 14.3125 12.8125
Q15.4844 7.5625 18.0938 3.96875
Q20.7031 0.390625 25 0.390625" id="Cmr10-30"/>
      <path d="
M8.6875 11.375
Q9.71875 8.45312 11.8438 6.04688
Q13.9688 3.65625 16.875 2.3125
Q19.7812 0.984375 22.9062 0.984375
Q30.125 0.984375 32.8594 6.59375
Q35.5938 12.2031 35.5938 20.2188
Q35.5938 23.6875 35.4688 26.0469
Q35.3594 28.4219 34.8125 30.6094
Q33.8906 34.125 31.5625 36.7656
Q29.25 39.4062 25.875 39.4062
Q22.5156 39.4062 20.0938 38.375
Q17.6719 37.3594 16.1562 35.9844
Q14.6562 34.625 13.4844 33.1094
Q12.3125 31.5938 12.0156 31.5
L10.8906 31.5
Q10.6406 31.5 10.2656 31.8125
Q9.90625 32.125 9.90625 32.4219
L9.90625 65.8281
Q9.90625 66.0625 10.2188 66.3281
Q10.5469 66.6094 10.8906 66.6094
L11.1875 66.6094
Q17.9219 63.375 25.4844 63.375
Q32.9062 63.375 39.7969 66.6094
L40.0938 66.6094
Q40.4375 66.6094 40.7188 66.3594
Q41.0156 66.1094 41.0156 65.8281
L41.0156 64.8906
Q41.0156 64.4062 40.8281 64.4062
Q37.4062 59.8594 32.25 57.3125
Q27.0938 54.7812 21.5781 54.7812
Q17.5781 54.7812 13.375 55.9062
L13.375 37.0156
Q16.7031 39.7031 19.3125 40.8438
Q21.9219 42 25.9844 42
Q31.5 42 35.8594 38.8125
Q40.2344 35.6406 42.5781 30.5312
Q44.9219 25.4375 44.9219 20.125
Q44.9219 14.1094 41.9688 8.98438
Q39.0156 3.85938 33.9375 0.828125
Q28.8594 -2.20312 22.9062 -2.20312
Q17.9688 -2.20312 13.8438 0.328125
Q9.71875 2.875 7.34375 7.17188
Q4.98438 11.4688 4.98438 16.3125
Q4.98438 18.5625 6.4375 19.9688
Q7.90625 21.3906 10.1094 21.3906
Q12.3125 21.3906 13.7969 19.9375
Q15.2812 18.5 15.2812 16.3125
Q15.2812 14.1562 13.7969 12.6719
Q12.3125 11.1875 10.1094 11.1875
Q9.76562 11.1875 9.32812 11.25
Q8.89062 11.3281 8.6875 11.375" id="Cmr10-35"/>
      <path d="
M17.8281 -1.125
L13.1875 62.5938
Q12.8438 64.0625 10.9844 64.4219
Q9.125 64.7969 6.39062 64.7969
Q5.42188 64.7969 5.42188 66.1094
Q5.76562 67.3906 5.95312 67.8438
Q6.15625 68.3125 7.07812 68.3125
L30.9062 68.3125
Q31.8906 68.3125 31.8906 67
Q31.5 64.7969 30.6094 64.7969
Q22.6094 64.7969 22.125 62.0156
L25.6875 11.5312
L50.6875 55.0781
L50.2031 62.5938
Q49.8594 64.0625 48 64.4219
Q46.1406 64.7969 43.4062 64.7969
Q42.3906 64.7969 42.3906 66.1094
Q42.7188 67.3906 42.9062 67.8438
Q43.1094 68.3125 44.0938 68.3125
L67.9219 68.3125
Q68.8906 68.3125 68.8906 67
Q68.8438 66.75 68.7031 66.1562
Q68.5625 65.5781 68.3125 65.1875
Q68.0625 64.7969 67.5781 64.7969
Q59.5156 64.7969 59.0781 62.0156
L59.0781 61.2812
L62.7031 11.5312
L89.8906 58.9844
Q90.4844 60.0625 90.4844 61.0781
Q90.4844 63.1406 88.4688 63.9688
Q86.4688 64.7969 83.9844 64.7969
Q83.0156 64.7969 83.0156 66.1094
Q83.2031 66.8906 83.3281 67.3281
Q83.4531 67.7812 83.7656 68.0469
Q84.0781 68.3125 84.7188 68.3125
L103.812 68.3125
Q104.781 68.3125 104.781 67
Q104.734 66.75 104.578 66.1406
Q104.438 65.5312 104.172 65.1562
Q103.906 64.7969 103.516 64.7969
Q96.3906 64.7969 92.6719 58.2969
Q92.3906 58.0156 92.3906 58.0156
L58.5 -1.125
Q57.9531 -2.20312 56.7812 -2.20312
L56 -2.20312
Q54.7812 -2.20312 54.7812 -1.125
L50.9844 50.3906
L21.5781 -1.125
Q20.8438 -2.20312 19.8281 -2.20312
L19 -2.20312
Q17.8281 -2.20312 17.8281 -1.125" id="Cmmi10-57"/>
     </defs>
     <g transform="translate(448.595125427 68.16)scale(0.144 -0.144)">
      <use transform="translate(0.0 0.6875)" xlink:href="#Cmr10-35"/>
      <use transform="translate(50.0 0.6875)" xlink:href="#Cmr10-31"/>
      <use transform="translate(100.0 0.6875)" xlink:href="#Cmr10-35"/>
      <use transform="translate(176.337890625 0.6875)" xlink:href="#Cmr10-31"/>
      <use transform="translate(226.337890625 0.6875)" xlink:href="#Cmr10-30"/>
      <use transform="translate(276.337890625 0.6875)" xlink:href="#Cmmi10-57"/>
     </g>
    </g>
   </g>
  </g>
 </g>
 <defs>
  <clipPath id="p332b41defa">
   <rect height="334.8" width="446.4" x="72.0" y="43.2"/>
  </clipPath>
 </defs>
</svg>
